<?xml version="1.0" encoding="utf-8"?>
<!-- Generator: Adobe Illustrator 26.0.1, SVG Export Plug-In . SVG Version: 6.00 Build 0)  -->
<svg version="1.1" id="Layer_1" xmlns="http://www.w3.org/2000/svg" xmlns:xlink="http://www.w3.org/1999/xlink" x="0px" y="0px"
	 viewBox="0 0 100.8 122" style="enable-background:new 0 0 100.8 122;" xml:space="preserve">
<style type="text/css">
	.st0{fill:#00FFE6;}
</style>
<path class="st0" d="M73.6,40.8c0-0.2-0.1-0.5-0.2-0.7L57.5,7.7c-0.2-0.5-0.4-0.9-0.7-1.3c0,0,0-0.1-0.1-0.1c-1.3-2-3.6-3.3-6-3.3
	c-2.5,0-4.8,1.2-6.2,3.3c-0.1,0.1-0.1,0.1-0.1,0.2c-0.2,0.3-0.3,0.6-0.4,0.9l-16,31.1c-0.9,1.5-1.4,2.9-1.4,4.4l-0.2,34.2L10.2,88.7
	C10,88.8,10,88.9,9.9,89c-1.7,1.2-2.8,3.2-2.8,5.4c0,3.7,2.9,6.7,6.5,6.8c0.1,0,0.1,0,0.2,0l12.3,0.1l0,3.4c0,4.7,3.8,8.6,8.5,8.6
	l4,0l0.2,0.6c0.3,0.9,1.1,1.5,2,1.5l17.6,0.2c0.9,0,1.7-0.6,2-1.4l0.2-0.6l4.2,0c2.3,0,4.4-0.9,6.1-2.5c1.6-1.6,2.5-3.7,2.5-6l0-2.7
	l12.5,0.1c0.1,0,0.2,0,0.3,0c0.1,0,0.2,0,0.3,0c1.8,0,3.5-0.7,4.8-1.9c1.3-1.3,2-2.9,2-4.7c0-2.5-1.4-4.8-3.5-6
	c-0.1-0.1-0.1-0.1-0.2-0.2l-16-11.9L74,43.4C74,42.6,73.9,41.7,73.6,40.8z M14.2,98.4c-0.1,0-0.2,0-0.3,0s-0.2,0-0.2,0
	c-2.1-0.1-3.8-1.9-3.8-4c0-1.4,0.7-2.6,1.9-3.3c0.2-0.1,0.3-0.2,0.4-0.4l14.2-10.1l-0.1,17.9L14.2,98.4z M87.7,91.7
	c0.1,0.2,0.4,0.4,0.6,0.5c1.5,0.6,2.4,2.1,2.4,3.7c0,1.1-0.4,2-1.2,2.8c-0.8,0.7-1.8,1.1-2.8,1.1c-0.1,0-0.1,0-0.2,0l-0.3,0
	c-0.2,0-0.5,0-0.7,0.1l-11.8-0.1l0.1-18.2L87.7,91.7z M69.5,41.8c0.2,0.6,0.3,1.1,0.3,1.6l-0.5,61.7c0,1.2-0.5,2.3-1.3,3.1
	c-0.3,0.3-0.7,0.6-1,0.8c-0.4,0.2-0.8,0.3-1.2,0.4c-0.3,0.1-0.6,0.1-0.9,0.1l-5.7-0.1c-0.6,0-1.1,0.2-1.5,0.6
	c-0.2,0.2-0.4,0.5-0.5,0.8l-0.2,0.6l-14.6-0.1l-0.2-0.6c-0.3-0.9-1.1-1.5-2-1.5l-5.6-0.1c-2.4,0-4.4-2-4.3-4.4L30.8,43
	c0-0.7,0.3-1.4,0.8-2.3c0,0,0.1-0.1,0.1-0.2L47.8,9.2c0-0.1,0.1-0.1,0.1-0.1c0-0.1,0.1-0.2,0.2-0.4c0,0,0,0,0.1-0.1
	c0.6-0.9,1.6-1.5,2.6-1.4c1,0,1.9,0.5,2.5,1.3c0,0,0,0,0,0.1c0.1,0.2,0.2,0.4,0.3,0.6c0,0.1,0.1,0.2,0.1,0.2l15.7,32
	C69.4,41.6,69.5,41.7,69.5,41.8z"/>
<path class="st0" d="M47,74.9c-2.1,0-4,0.8-5.4,2.2c-1.4,1.4-2.3,3.3-2.3,5.4l-0.1,13.2c0,4.2,3.4,7.6,7.6,7.7l6.2,0.1
	c2.1,0,4-0.8,5.4-2.2c1.4-1.4,2.3-3.3,2.3-5.4l0.1-13.2c0-2.1-0.8-4-2.2-5.4s-3.3-2.3-5.4-2.3L47,74.9z M56.6,82.6l-0.1,13.2
	c0,0.9-0.4,1.8-1,2.4c-0.6,0.6-1.5,1-2.4,1l-6.2-0.1c-1.9,0-3.4-1.6-3.4-3.4l0.1-13.2c0-0.9,0.4-1.8,1-2.4c0.6-0.6,1.5-1,2.4-1
	l6.2,0.1c0.9,0,1.8,0.4,2.4,1C56.3,80.8,56.6,81.7,56.6,82.6z"/>
<path class="st0" d="M46.8,42c-1.9,0.5-3.6,1.5-5,2.9c-2.3,2.2-3.6,5.2-3.6,8.5c0,3.2,1.2,6.2,3.5,8.6c2.3,2.3,5.3,3.6,8.5,3.6
	c3.2,0,6.2-1.2,8.5-3.4c2.3-2.2,3.5-5.3,3.6-8.5c0-3.2-1.2-6.2-3.5-8.6c-2.2-2.3-5.3-3.6-8.5-3.6C49.1,41.5,47.9,41.6,46.8,42z
	 M58.1,53.6c0,2.1-0.8,4.1-2.3,5.5c-1.5,1.5-3.5,2.3-5.5,2.2c-2.1,0-4.1-0.8-5.5-2.4c-1.5-1.5-2.3-3.5-2.3-5.6c0-2.1,0.9-4,2.3-5.5
	c1.5-1.5,3.5-2.3,5.6-2.3c2.1,0,4.1,0.8,5.5,2.3C57.3,49.5,58.1,51.5,58.1,53.6z"/>
</svg>
