<svg width="103" height="93" viewBox="0 0 103 93" fill="none" xmlns="http://www.w3.org/2000/svg">
<path d="M98.4714 72.2525C99.6524 72.4951 100.805 71.6458 101.03 70.3718L102.886 59.9071C102.999 59.3004 102.886 58.6634 102.549 58.1174C102.211 57.6018 101.705 57.2378 101.143 57.1164L97.4029 56.3581C97.2342 54.1438 96.8124 51.9599 96.1657 49.8669L99.315 47.5617C100.327 46.8337 100.58 45.3474 99.9055 44.2857L94.3661 35.4892C94.0286 34.9736 93.5225 34.6096 92.9601 34.4883C92.3977 34.3669 91.8072 34.4883 91.3292 34.8523L88.1798 37.1575C86.6052 35.7319 84.8899 34.4883 83.034 33.5176L83.737 29.4834C83.962 28.2094 83.1746 26.9658 81.9936 26.7231L72.2925 24.7211C71.7301 24.5998 71.1396 24.7211 70.6616 25.0851C70.1836 25.4491 69.8462 25.9951 69.7337 26.6018L69.0307 30.636C66.978 30.818 64.9534 31.273 63.0132 32.001L60.8762 28.6037C60.5387 28.0881 60.0326 27.7241 59.4702 27.6027C58.9078 27.4814 58.3173 27.6027 57.8393 27.9667L49.6847 33.9423C49.2067 34.3063 48.8693 34.8523 48.7568 35.4589C48.6443 36.0656 48.7568 36.7026 49.0942 37.2182L51.2313 40.6155C49.9097 42.3141 48.7568 44.1644 47.857 46.1663L44.1172 45.408C43.5548 45.2867 42.9643 45.408 42.4862 45.772C42.0082 46.136 41.6708 46.682 41.5583 47.2887L39.7024 57.7534C39.4775 59.0274 40.2648 60.271 41.4458 60.5137L45.1857 61.272C45.3544 63.4863 45.7762 65.6399 46.451 67.7632L43.3017 70.0685C42.8237 70.4325 42.4862 70.9785 42.3738 71.5851C42.2613 72.1918 42.3738 72.8288 42.7112 73.3748L48.2507 82.1712C48.5881 82.6869 49.0942 83.0509 49.6566 83.1722C50.219 83.2935 50.8095 83.1722 51.2875 82.8082L54.4369 80.5029C56.0116 81.9286 57.7268 83.1722 59.5827 84.1429L58.8797 88.1771C58.6547 89.4511 59.4421 90.6947 60.6231 90.9374L70.3242 92.9393C70.4648 92.9697 70.6054 92.9697 70.746 92.9697C71.7864 92.9697 72.6862 92.181 72.9111 91.0587L73.6141 87.0245C75.6668 86.8425 77.6633 86.3875 79.6316 85.6898L81.7687 89.0871C82.1061 89.6027 82.6123 89.9667 83.1746 90.0881C83.737 90.2094 84.3275 90.0881 84.8337 89.7241L92.9882 83.7485C94.0005 83.0206 94.2536 81.5343 93.5787 80.4726L91.4417 77.0753C92.7633 75.3767 93.9161 73.5264 94.816 71.5245L98.4714 72.2525ZM91.4417 67.9149C90.4013 70.6145 88.9109 73.0714 86.9988 75.1947C86.2677 76.0137 86.1834 77.227 86.7739 78.1673L88.6579 81.1399L84.1307 84.4765L82.2467 81.5039C81.6562 80.5636 80.5596 80.2299 79.6035 80.6546C77.0728 81.7769 74.4015 82.3836 71.702 82.4139C70.6616 82.4442 69.7899 83.2329 69.5931 84.3249L68.9745 87.8738L63.5475 86.7515L64.1661 83.2025C64.3629 82.1106 63.8006 80.9883 62.8445 80.5636C60.3419 79.4413 58.0642 77.8337 56.0959 75.771C55.3367 74.9824 54.1838 74.8914 53.3402 75.5284L50.5846 77.5607L47.4914 72.6771L50.2471 70.6448C51.1188 70.0078 51.4281 68.8249 51.0345 67.7936C49.9941 65.0636 49.4317 62.182 49.4036 59.2701C49.3754 58.1478 48.6443 57.2074 47.632 56.9951L44.3702 56.3278L45.4106 50.5343L48.7006 51.2016C49.7129 51.4139 50.7252 50.8072 51.1469 49.7759C52.1873 47.0763 53.6777 44.6194 55.5898 42.4961C56.3209 41.6771 56.4052 40.4335 55.8147 39.5235L53.9307 36.5509L58.4579 33.2143L60.3419 36.1869C60.9324 37.1272 62.029 37.4609 62.9851 37.0362C65.5158 35.9139 68.1871 35.3072 70.8866 35.2769C71.927 35.2466 72.7987 34.4579 72.9955 33.366L73.6141 29.8474L78.9849 30.9697L78.3663 34.5186C78.1694 35.6106 78.7318 36.7026 79.6879 37.1575C82.1905 38.2799 84.4681 39.8875 86.4365 41.9501C87.1957 42.7388 88.3486 42.8298 89.1921 42.1928L91.9478 40.1605L95.0409 45.044L92.2852 47.0763C91.4135 47.7133 91.1042 48.8963 91.4979 49.9276C92.5383 52.6575 93.1007 55.5088 93.1288 58.4511C93.1569 59.5734 93.888 60.5137 94.9003 60.726L98.1902 61.3934L97.1498 67.1869L93.8599 66.5196C92.8476 66.2769 91.8353 66.8836 91.4417 67.9149Z" fill="#00FFE6"/>
<path d="M74.2365 42.1321C70.103 41.2828 65.9132 42.2231 62.4265 44.771C58.9397 47.319 56.5777 51.2016 55.7903 55.6605C55.003 60.1194 55.8747 64.639 58.2367 68.4002C60.5987 72.1615 64.198 74.7094 68.3315 75.5587C69.3156 75.771 70.3279 75.862 71.284 75.862C78.7074 75.862 85.3436 70.1595 86.7776 62.0303C88.4085 52.8092 82.7847 43.8914 74.2365 42.1321ZM82.4473 61.1507C81.8849 64.366 80.1696 67.1566 77.667 69.0069C75.1644 70.8572 72.1276 71.5245 69.1469 70.9178C66.1663 70.3112 63.5793 68.4609 61.8641 65.7613C60.1488 63.0617 59.5302 59.7857 60.0926 56.5705C60.655 53.3552 62.3702 50.5646 64.8728 48.7143C66.7849 47.319 68.9782 46.591 71.2559 46.591C71.9589 46.591 72.6899 46.6517 73.421 46.8033C79.5791 48.047 83.6283 54.4775 82.4473 61.1507Z" fill="#00FFE6"/>
<path d="M1.06781 33.2145C1.2084 34.1851 2.02386 34.8524 2.92367 34.7311L5.7637 34.3064C6.38232 35.8231 7.16966 37.279 8.12571 38.5834L6.41044 41.0706C6.15737 41.4346 6.04489 41.9199 6.10113 42.4053C6.15737 42.8603 6.38232 43.2849 6.74787 43.5882L12.681 48.3808C13.4121 48.9571 14.4525 48.8055 14.9868 48.0168L16.702 45.5295C18.1361 46.1362 19.6546 46.5608 21.173 46.7732L21.5667 49.8368C21.6229 50.2918 21.8478 50.7164 22.2134 51.0197C22.4946 51.2624 22.8601 51.3837 23.1976 51.3837C23.2819 51.3837 23.3663 51.3837 23.4225 51.3534L30.7616 50.2008C31.6614 50.0491 32.28 49.1695 32.1676 48.1988L31.7739 45.1352C33.1799 44.4679 34.5296 43.6186 35.7387 42.5873L38.0445 44.4376C38.7756 45.0139 39.816 44.8622 40.3502 44.0736L44.7931 37.6734C45.3273 36.8847 45.1867 35.7624 44.4556 35.1861L42.1499 33.3358C42.7122 31.7888 43.1059 30.1509 43.3027 28.5129L46.1428 28.0882C46.5646 28.0276 46.9582 27.7849 47.2394 27.3906C47.4925 27.0266 47.605 26.5413 47.5487 26.0863L46.4802 18.1695C46.3396 17.1988 45.5242 16.5315 44.6243 16.6528L41.7843 17.0775C41.1657 15.5608 40.3784 14.1049 39.4223 12.8006L41.1376 10.3133C41.3906 9.9493 41.5031 9.46397 41.4469 8.97865C41.3906 8.52366 41.1657 8.099 40.8001 7.79568L34.867 3.00311C34.5296 2.73012 34.0797 2.60879 33.6298 2.66945C33.208 2.73012 32.8143 2.97278 32.5331 3.36711L30.8179 5.85439C29.3557 5.24773 27.8653 4.82307 26.3469 4.61075L25.9814 1.51681C25.8689 0.546166 25.0253 -0.121153 24.1255 0.0305107L16.7864 1.15282C16.3646 1.21349 15.9709 1.48648 15.6898 1.85047C15.4367 2.21446 15.3242 2.69979 15.3804 3.15478L15.7741 6.21838C14.3682 6.8857 13.0466 7.73501 11.8093 8.76632L9.53167 6.91603C9.16612 6.64303 8.74433 6.5217 8.29442 6.58237C7.87264 6.64304 7.47897 6.8857 7.2259 7.28002L2.75495 13.6802C2.50188 14.0745 2.38941 14.5295 2.44564 15.0149C2.53 15.4698 2.75495 15.8945 3.09238 16.1675L5.39815 18.0178C4.83577 19.5648 4.4421 21.2027 4.24527 22.8407L1.40524 23.2957C0.983449 23.3563 0.589781 23.599 0.336709 23.9933C0.0555172 24.3573 -0.0569593 24.8426 0.0273981 25.2976L1.06781 33.2145ZM5.98866 26.1773C6.74787 26.056 7.33837 25.3583 7.39461 24.5393C7.53521 22.325 8.04135 20.2017 8.91304 18.1998C9.25047 17.4415 9.02552 16.5315 8.4069 16.0158L6.41044 14.3779L8.88493 10.8289L10.9095 12.4669C11.5 12.9522 12.3717 12.9219 12.9622 12.3759C14.5088 10.9199 16.2521 9.79763 18.1924 9.03932C18.9235 8.76632 19.3734 7.94734 19.2609 7.12836L18.8953 4.42875L22.9726 3.79176L23.3382 6.46104C23.4506 7.28002 24.0974 7.91701 24.8566 7.97767C26.8812 8.12934 28.8776 8.67533 30.7335 9.61564C31.4365 9.97963 32.28 9.73697 32.7581 9.06965L34.2765 6.8857L37.5664 9.55497L36.048 11.7086C35.57 12.3759 35.6262 13.3162 36.1324 13.9532C37.4821 15.6215 38.5225 17.5021 39.2255 19.5951C39.5067 20.3837 40.2378 20.8691 40.997 20.7477L43.4715 20.3534L44.062 24.7516L41.5875 25.146C40.8283 25.2673 40.2378 25.965 40.1815 26.7839C40.0409 28.9679 39.5348 31.1215 38.6631 33.1235C38.3257 33.8818 38.5506 34.7918 39.1692 35.3074L41.1938 36.9454L38.7193 40.4943L36.7229 38.8563C36.1042 38.3407 35.2326 38.4014 34.6421 38.9473C33.0955 40.4033 31.3521 41.5256 29.44 42.2839C28.7089 42.5569 28.259 43.3759 28.3715 44.1949L28.737 46.8642L24.6598 47.5012L24.2942 44.8319C24.1817 44.0129 23.535 43.3759 22.7758 43.3152C20.695 43.1939 18.7266 42.6479 16.8708 41.7076C16.6458 41.5863 16.4209 41.5256 16.1678 41.5256C15.6616 41.5256 15.1555 41.7683 14.8462 42.2233L13.3277 44.4072L10.0378 41.7379L11.5562 39.5843C12.0343 38.917 11.978 37.9767 11.4719 37.3397C10.1222 35.6714 9.08176 33.7908 8.37878 31.7282C8.12571 30.9395 7.36649 30.4542 6.60728 30.5755L4.13279 30.9698L3.51417 26.5716L5.98866 26.1773Z" fill="#00FFE6"/>
<path d="M23.7844 38.4618C24.3468 38.4618 24.9092 38.4315 25.4716 38.3405C31.939 37.3395 36.438 30.8483 35.5101 23.8718C34.5822 16.8953 28.5647 12.0421 22.0973 13.0431C15.6299 14.044 11.1308 20.5352 12.0588 27.5117C12.9023 33.8513 17.9919 38.4618 23.7844 38.4618ZM22.5753 16.5313C22.9971 16.4706 23.3908 16.4403 23.7844 16.4403C27.9742 16.4403 31.6297 19.7769 32.2483 24.3571C32.9231 29.3924 29.6613 34.0939 24.9936 34.7916C20.3258 35.5196 15.9673 32.001 15.3206 26.9658C14.6457 21.9305 17.9075 17.2593 22.5753 16.5313Z" fill="#00FFE6"/>
</svg>
