<svg width="105" height="122" viewBox="0 0 105 122" fill="none" xmlns="http://www.w3.org/2000/svg">
<g clip-path="url(#clip0_1271_90)">
<path d="M2.63778 57.8415C1.35004 57.7517 0.194383 58.59 0.0292885 59.7276C-0.168825 60.8952 0.656647 61.973 1.94438 62.2425C11.0576 64.0388 19.2793 64.8471 26.7416 64.8471C62.1048 64.8471 80.4302 46.4947 93.4397 27.0047L101.298 31.2859C102.124 31.735 103.147 31.705 103.94 31.226C104.732 30.747 105.128 29.8788 104.963 29.0106L99.9114 1.88615C99.7793 1.2275 99.317 0.628728 98.6566 0.299403C97.9963 -0.0299219 97.2038 -0.0598606 96.5104 0.209587L69.7651 10.4785C68.8736 10.8079 68.2793 11.5863 68.2793 12.4545C68.2463 13.3227 68.8076 14.1311 69.6661 14.5203L77.7227 18.083C56.1614 61.1048 4.85004 57.9912 2.63778 57.8415ZM83.1378 17.9033C83.6331 16.8255 83.1378 15.5681 81.9491 15.0292L76.6 12.6641L95.5859 5.35904L99.251 24.9689L93.8359 22.0349C93.2746 21.7355 92.6142 21.6457 91.9538 21.7954C91.3265 21.945 90.7651 22.3043 90.435 22.8133C77.2934 43.0518 60.1236 61.0449 25.0576 60.4162C44.0104 56.7338 69.8642 46.4349 83.1378 17.9033Z" fill="#FFCE00"/>
<path d="M10.4997 86.1934C5.77801 86.1934 2.04688 90.3848 2.04688 95.7438V112.479C2.04688 117.839 5.74499 122.03 10.4997 122.03H22.0563C26.778 122.03 30.5091 117.839 30.5091 112.479V95.7438C30.5091 90.3848 26.811 86.1934 22.0563 86.1934H10.4997ZM25.5893 95.7438V112.479C25.5893 115.204 23.9384 117.569 22.0563 117.569H10.4997C8.61763 117.569 6.96669 115.204 6.96669 112.479V95.7438C6.96669 93.0194 8.61763 90.6542 10.4997 90.6542H22.0563C23.9384 90.6542 25.5893 93.0194 25.5893 95.7438Z" fill="#FFCE00"/>
<path d="M45.3981 70.5056C40.6764 70.5056 36.9453 74.697 36.9453 80.056V112.45C36.9453 117.809 40.6434 122 45.3981 122H56.9547C61.6764 122 65.4076 117.809 65.4076 112.45V80.056C65.4076 74.697 61.7095 70.5056 56.9547 70.5056H45.3981ZM60.4878 80.056V112.45C60.4878 115.174 58.8368 117.539 56.9547 117.539H45.3981C43.5161 117.539 41.8651 115.174 41.8651 112.45V80.056C41.8651 77.3316 43.5161 74.9664 45.3981 74.9664H56.9547C58.8368 74.9664 60.4878 77.3316 60.4878 80.056Z" fill="#FFCE00"/>
<path d="M95.2907 51.704H83.7341C79.0124 51.704 75.2812 55.8954 75.2812 61.2545V112.479C75.2812 117.839 78.9794 122.03 83.7341 122.03H95.2907C100.012 122.03 103.744 117.839 103.744 112.479V61.2545C103.744 55.8954 100.045 51.704 95.2907 51.704ZM98.8237 112.479C98.8237 115.204 97.1728 117.569 95.2907 117.569H83.7341C81.852 117.569 80.2011 115.204 80.2011 112.479V61.2545C80.2011 58.53 81.852 56.1649 83.7341 56.1649H95.2907C97.1728 56.1649 98.8237 58.53 98.8237 61.2545V112.479Z" fill="#FFCE00"/>
</g>
<defs>
<clipPath id="clip0_1271_90">
<rect width="105" height="122" fill="white"/>
</clipPath>
</defs>
</svg>
