<svg width="128" height="124" viewBox="0 0 128 124" fill="none" xmlns="http://www.w3.org/2000/svg">
<g clip-path="url(#clip0_1271_96)">
<path d="M50.3744 124C78.1417 124 100.749 101.517 100.749 73.9015C100.749 60.8514 95.6867 48.95 87.4302 40.0055L96.9153 30.5723C97.2594 31.0367 97.7754 31.3788 98.4143 31.4521L118.245 33.6271C118.318 33.6271 118.392 33.6516 118.49 33.6516C119.547 33.6516 120.456 32.8451 120.579 31.7698C120.702 30.6212 119.866 29.5704 118.711 29.4482L100.11 27.4198L105.565 21.9945C105.663 22.0189 105.737 22.0434 105.835 22.0434L125.666 24.2184C125.739 24.2184 125.813 24.2184 125.911 24.2184C126.968 24.2184 127.877 23.4119 128 22.3366C128.123 21.188 127.287 20.1372 126.132 20.015L109.349 18.2066L119.522 8.06466C120.358 7.23376 120.358 5.91409 119.522 5.08319C118.687 4.25229 117.36 4.25229 116.549 5.08319L106.106 15.4695L100.601 1.31969C100.184 0.244403 98.9549 -0.29324 97.8737 0.122212C96.7925 0.537663 96.2519 1.75958 96.6696 2.83486L102.788 18.5243C102.813 18.5731 102.862 18.622 102.887 18.6709L98.3897 23.1431L92.8363 8.55343C92.4185 7.45371 91.2144 6.91606 90.1087 7.33151C89.0275 7.74696 88.4623 8.94444 88.88 10.0442L94.9987 26.2223C95.0232 26.2956 95.0724 26.3445 95.1215 26.4178L84.4569 37.0241C75.4878 28.8128 63.5208 23.7785 50.3744 23.7785C22.607 23.8029 0 46.2617 0 73.9015C0 101.541 22.607 124 50.3744 124ZM50.3744 28.0063C62.3413 28.0063 73.2517 32.5519 81.459 40.0055L71.4824 49.9275C65.8307 45.0154 58.4588 42.0095 50.3744 42.0095C32.6819 42.0095 18.3068 56.3059 18.3068 73.9015C18.3068 91.4971 32.7065 105.793 50.3744 105.793C68.0422 105.793 82.4419 91.4971 82.4419 73.9015C82.4419 65.8613 79.444 58.5298 74.4803 52.909L84.4569 42.987C91.9516 51.1494 96.5222 62 96.5222 73.9015C96.5222 99.2196 75.8073 119.797 50.3744 119.797C24.9169 119.797 4.22653 99.2196 4.22653 73.9015C4.22653 48.5834 24.9169 28.0063 50.3744 28.0063ZM48.8754 75.3922C49.2931 75.8077 49.8338 76.0032 50.3744 76.0032C50.915 76.0032 51.4556 75.8077 51.8733 75.3922L58.3851 68.9161C59.2943 70.3579 59.8349 72.0686 59.8349 73.9015C59.8349 79.0824 55.5838 83.3102 50.3744 83.3102C45.1649 83.3102 40.9138 79.0824 40.9138 73.9015C40.9138 68.7206 45.1649 64.4927 50.3744 64.4927C52.2173 64.4927 53.9374 65.0304 55.3872 65.9346L48.8754 72.4107C48.0399 73.2172 48.0399 74.5613 48.8754 75.3922ZM58.4343 62.9042C56.1735 61.2669 53.3968 60.2649 50.3744 60.2649C42.8305 60.2649 36.6873 66.3745 36.6873 73.877C36.6873 81.3796 42.8305 87.4892 50.3744 87.4892C57.9182 87.4892 64.0614 81.3796 64.0614 73.877C64.0614 70.8711 63.0785 68.1096 61.4076 65.8613L71.4824 55.8416C75.6844 60.6803 78.2154 66.9854 78.2154 73.8526C78.2154 89.1265 65.7324 101.541 50.3744 101.541C35.0163 101.541 22.5333 89.1265 22.5333 73.8526C22.5333 58.5787 35.0163 46.164 50.3744 46.164C57.2793 46.164 63.6191 48.6811 68.4846 52.8601L58.4343 62.9042Z" fill="#FFCE00"/>
</g>
<defs>
<clipPath id="clip0_1271_96">
<rect width="128" height="124" fill="white"/>
</clipPath>
</defs>
</svg>
