<svg width="134" height="100" viewBox="0 0 134 100" fill="none" xmlns="http://www.w3.org/2000/svg">
<g clip-path="url(#clip0_1271_74)">
<path d="M100.893 0.523193L89.4753 10.7322C88.8898 10.6608 88.3309 10.6132 87.7454 10.5656C83.6469 9.09021 76.3813 8.04313 67.8649 13.9211L67.6786 14.0876L64.8842 16.6101C54.3452 10.2087 45.9619 14.159 43.6199 15.5393L33.1074 6.13935L0 35.7431L12.5351 46.9754C12.6415 51.9967 14.6375 57.1607 18.5231 62.3723C20.12 64.514 21.9829 66.4892 24.0056 68.3216C26.5871 70.6775 29.2218 72.9858 31.83 75.318C29.0089 79.0066 30.2066 82.0526 33.1607 84.7893C36.2212 87.6212 39.0423 87.9543 43.1674 86.8835C43.194 86.8835 43.2473 86.8834 43.2739 86.9072C46.2546 90.8814 48.9692 92.809 51.9499 93.0231C53.1742 94.094 54.3984 95.1649 55.6226 96.2358C59.2687 99.377 64.8576 100.091 69.2489 97.8302C71.1384 96.8545 71.4844 96.0454 72.4425 94.6652C79.8943 100.258 84.8711 100.353 90.7261 92.5234C90.7527 92.4996 90.7793 92.4758 90.8326 92.4996C94.9843 93.5705 97.7787 93.2373 100.839 90.4054C103.953 87.5022 105.124 84.2657 101.664 80.3154C101.638 80.2916 100.733 79.2445 100.786 79.2445C103.261 79.3159 105.231 77.9119 106.322 76.6506C109.196 73.319 109.036 69.8208 105.949 66.3702C107.306 65.1565 108.664 63.9429 110.021 62.7292C112.044 60.8968 113.907 58.9217 115.503 56.7799C119.389 51.5683 121.385 46.4043 121.492 41.3831L134.053 30.1508L100.893 0.523193ZM26.0282 64.0143C22.2224 60.4209 19.3748 56.4468 18.1239 51.9491C17.8578 50.9496 17.6449 49.9263 17.5384 48.8554C17.432 47.9987 17.4054 47.1182 17.432 46.2139L4.71063 34.8388L32.0695 10.3515L40.8254 18.2046L41.4109 18.7281L41.3843 18.7995L45.6159 19.1089L45.882 18.4901C47.5587 17.4668 54.4783 14.04 63.7398 20.3463L76.0087 31.3644C76.6208 31.9118 76.9668 32.6495 76.9668 33.4348C76.9668 34.2201 76.6208 34.9578 76.0087 35.5052L75.2103 36.2191C73.9329 37.3614 71.8304 37.3614 70.5795 36.2191L58.0445 24.963L55.0105 26.8668L58.3905 30.4126L59.8542 31.7214C58.4171 33.0065 56.9799 34.2915 55.5428 35.5766C55.1702 35.8859 54.9839 36.2429 54.8775 36.5998C54.7976 36.6712 54.7444 36.7426 54.6645 36.7902C46.228 44.3339 37.7915 51.8539 29.3815 59.4214C27.6783 60.9682 26.5871 62.4913 26.0282 64.0143ZM66.6673 94.5462C65.7092 95.3791 64.6979 95.8788 63.2608 95.7836C61.2647 95.6408 59.8808 94.2844 58.8961 93.4277C58.3106 92.9042 57.7251 92.3806 57.113 91.8571C58.4969 91.1908 59.9607 90.2627 61.5575 89.0728C62.5422 90.453 62.8616 91.2621 64.7511 92.2378C65.6028 92.6662 66.5076 92.9993 67.4125 93.2135C67.2794 93.7609 67.0133 94.2368 66.6673 94.5462ZM84.738 93.0231C82.8485 94.9983 80.7194 95.1649 77.9515 92.9042C77.5257 92.5472 77.0999 92.1902 76.7007 91.8333C77.2862 91.4763 77.8717 91.0718 78.404 90.6196C79.9742 89.2632 81.5178 87.8829 83.088 86.5265C83.2477 86.6693 83.4073 86.8121 83.5936 86.9786C86.1752 89.287 86.5211 91.167 84.738 93.0231ZM97.832 86.9072C95.9424 89.2156 93.0415 89.287 90.4334 86.9548C89.1293 85.8126 87.8518 84.6465 86.5478 83.5042C88.6769 81.648 90.8059 79.7919 92.935 77.9357C94.1327 79.0066 95.3303 80.0774 96.5279 81.1483C98.8433 83.2187 99.2425 85.17 97.832 86.9072ZM103.128 73.2C102.17 75.3656 99.2957 76.3889 97.0336 75.2704C96.794 75.1514 96.6077 75.0324 96.3948 74.9134C98.4441 73.1048 100.493 71.2724 102.516 69.4401C103.368 70.4395 103.82 71.6056 103.128 73.2ZM116.568 40.5978C116.595 41.5021 116.568 42.3826 116.462 43.2393C116.355 44.3102 116.142 45.3334 115.876 46.3329C114.625 50.8544 111.751 54.8523 107.919 58.4457C102.729 63.348 97.2731 68.0122 91.9237 72.7955C86.3349 77.7929 80.746 82.8379 75.1039 87.8115C74.1458 88.6682 72.7619 90.0247 70.7392 90.1675C69.3021 90.2627 68.2908 89.7629 67.3327 88.93C66.4544 88.1923 66.1883 86.3361 66.5076 85.17C66.8802 83.9088 68.1311 82.7665 69.1956 81.7908C71.7505 79.4587 74.3587 77.1504 76.9136 74.842C78.1644 73.7236 79.4153 72.5813 80.6661 71.439C81.9968 70.2254 85.8292 67.6553 83.6735 65.8467C81.6775 64.1809 78.8564 67.3935 77.6588 68.4644C76.4079 69.5828 75.1305 70.7251 73.8796 71.8436C67.9448 77.0076 62.1164 82.2668 56.0218 87.3118C53.2806 89.5963 51.1249 89.406 49.262 87.4308C47.4788 85.5508 47.8248 83.6946 50.4064 81.3625C57.113 75.3418 63.8463 69.3449 70.5529 63.3242C71.511 62.4913 72.3094 61.9201 72.4691 60.6351C72.6022 59.6832 72.203 58.8503 71.1118 58.6837C69.2755 58.4457 68.4504 59.0644 67.2794 60.1353C59.3752 67.2031 51.4709 74.2709 43.5666 81.3387C40.9585 83.647 38.0576 83.5994 36.168 81.2911C34.7575 79.5539 35.1301 77.6025 37.4455 75.5322C45.4562 68.3216 53.5202 61.1348 61.5575 53.9718C62.8616 52.8058 63.8995 51.4969 62.3027 50.1405C60.7591 48.8554 59.4284 49.9977 58.2574 51.0448C52.083 56.5895 45.882 62.1343 39.681 67.6553C38.856 68.393 37.9778 69.1307 36.9664 69.6304C34.6777 70.7489 31.83 69.7256 30.8453 67.5839C29.8606 65.3707 31.138 63.9667 32.7082 62.5626C42.9811 53.4007 53.254 44.2388 63.4471 35.0054L67.652 38.7892C69.0892 40.0742 70.9787 40.7168 72.8683 40.7168C74.7579 40.7168 76.6208 40.0742 78.058 38.813L78.8564 38.0991C80.2403 36.8616 81.0121 35.2196 81.0121 33.4586C81.0121 31.8166 80.3202 30.2698 79.0959 29.0561L69.7545 20.6319L67.9182 18.9899L70.4199 16.7529C74.2788 14.1114 77.712 13.2071 80.5597 13.0643C85.7494 12.636 90.3535 15.0633 90.3535 15.0633L93.148 12.5884L101.904 4.73531L129.263 29.1989L116.568 40.5978Z" fill="#FFCE00"/>
</g>
<defs>
<clipPath id="clip0_1271_74">
<rect width="134" height="98.6396" fill="white" transform="translate(0 0.523193)"/>
</clipPath>
</defs>
</svg>
