<svg width="52" height="53" viewBox="0 0 52 53" fill="none" xmlns="http://www.w3.org/2000/svg">
<path d="M0.187518 26.7344C0.193621 23.3258 0.874527 19.9522 2.19095 16.808C3.50738 13.6639 5.43327 10.8115 7.85756 8.41532C10.2819 6.01919 13.1565 4.12673 16.3159 2.84712C19.4752 1.5675 22.8566 0.926051 26.265 0.959759C40.4319 1.02507 51.8556 12.7101 51.7963 27.0848C51.725 41.1388 40.0044 52.6754 25.885 52.616C19.0503 52.5752 12.5099 49.8295 7.69423 44.9793C2.87856 40.1291 0.179547 33.5693 0.187518 26.7344ZM21.3487 42.2551H27.0131V28.676H31.6444L32.3628 23.1423H27.0191C27.0191 21.8776 27.0191 20.7673 27.0191 19.651C27.0725 17.8698 27.6841 17.276 29.4831 17.2107C30.4806 17.2107 31.4722 17.2107 32.4519 17.2107V12.2885C30.3856 12.2885 28.355 12.0629 26.3956 12.3479C23.6644 12.7457 21.9247 14.7229 21.5625 17.4898C21.3725 18.9207 21.4081 20.3873 21.3487 21.836C21.3487 22.2635 21.3487 22.6969 21.3487 23.2432H16.765V28.7413H21.3666L21.3487 42.2551Z" fill="black"/>
</svg>
