<svg width="52" height="53" viewBox="0 0 52 53" fill="none" xmlns="http://www.w3.org/2000/svg">
<path d="M0.179803 26.805C0.16965 23.4147 0.82845 20.0558 2.11846 16.9205C3.40847 13.7852 5.30434 10.9353 7.69749 8.53383C10.0906 6.1324 12.9341 4.2267 16.0649 2.92588C19.1957 1.62506 22.5523 0.954672 25.9426 0.953126C29.3322 0.952341 32.6886 1.61998 35.8199 2.91783C38.9511 4.21567 41.7957 6.11825 44.1908 8.51668C46.586 10.9151 48.4846 13.7623 49.7781 16.8954C51.0717 20.0284 51.7346 23.3858 51.7292 26.7753C51.7308 33.5974 49.0296 40.1423 44.2168 44.9774C39.4039 49.8125 32.8716 52.5439 26.0495 52.5738C22.6572 52.5863 19.2959 51.929 16.1581 50.6397C13.0204 49.3503 10.1681 47.4543 7.7647 45.0603C5.36131 42.6663 3.45413 39.8214 2.15254 36.6887C0.850958 33.5561 0.180562 30.1973 0.179803 26.805ZM26.1445 40.6156V40.3306C28.1929 40.3306 30.2473 40.4078 32.2957 40.3306C36.6835 40.1169 39.4207 37.6884 39.6345 33.3184C39.872 29.0494 39.8186 24.7447 39.6345 20.4697C39.4801 16.4025 36.9745 13.6475 32.937 13.4338C28.2855 13.2101 23.6252 13.2478 18.9779 13.5466C17.3112 13.6462 15.7451 14.377 14.598 15.5902C13.4509 16.8035 12.809 18.4081 12.8029 20.0778C12.6486 24.5428 12.6486 29.0197 12.8029 33.4847C12.9276 37.1066 15.2967 39.6478 18.8889 40.1466C21.2995 40.4553 23.7279 40.4553 26.1445 40.6156Z" fill="black"/>
</svg>
