<svg width="52" height="53" viewBox="0 0 52 53" fill="none" xmlns="http://www.w3.org/2000/svg">
<path d="M51.7567 26.7818C51.7504 33.6276 49.0252 40.1907 44.1806 45.0276C39.3359 49.8644 32.7685 52.579 25.9226 52.5743C19.096 52.5586 12.5541 49.8365 7.73135 45.0048C2.90861 40.1732 0.198596 33.6263 0.19547 26.7996C0.183534 23.3904 0.848679 20.0127 2.15234 16.8626C3.456 13.7124 5.37221 10.8525 7.78981 8.4487C10.2074 6.04491 13.0782 4.14511 16.2358 2.85952C19.3934 1.57393 22.7748 0.928129 26.1839 0.959593C32.991 1.01912 39.4987 3.76668 44.2888 8.60352C49.0789 13.4404 51.7632 19.9744 51.7567 26.7818ZM12.7948 37.0893C15.0391 38.5042 17.5869 39.3668 20.2291 39.6062C22.8714 39.8457 25.5327 39.4552 27.9948 38.4668C34.4251 36.0443 38.6823 29.6852 38.807 22.6612C38.7862 22.3359 38.8463 22.0105 38.982 21.7141C39.1178 21.4178 39.3249 21.1597 39.5848 20.963C40.3225 20.2895 41.0185 19.5718 41.6689 18.8137L41.5205 18.6712L38.9198 19.3302L41.0633 16.4149C40.2873 16.5166 39.5321 16.739 38.8248 17.074C38.4056 17.2929 37.9289 17.3767 37.4601 17.314C36.9913 17.2513 36.5533 17.0451 36.2064 16.7237C34.3361 15.2571 32.1689 15.2393 30.0848 16.2368C29.0792 16.7051 28.2278 17.4504 27.6305 18.3853C27.0332 19.3201 26.7147 20.4058 26.7123 21.5152C26.7123 22.014 26.7123 22.5187 26.7123 23.0412C24.3319 22.886 22.0081 22.2473 19.8827 21.1642C17.7573 20.0811 15.8749 18.5762 14.3504 16.7415C12.8423 19.829 13.5726 22.3583 15.6389 24.763L13.4895 24.199C13.6736 27.138 15.2351 28.949 17.7586 30.2374H15.6745C16.6126 32.8262 18.483 34.0077 21.143 34.4827C18.7402 36.2806 15.7937 37.2006 12.7948 37.0893Z" fill="black"/>
</svg>
