<svg width="121" height="93" viewBox="0 0 121 93" fill="none" xmlns="http://www.w3.org/2000/svg">
<path d="M16.0542 31.8595H66.1222C66.9532 31.8595 67.6061 31.2075 67.6061 30.3776C67.6061 29.5478 66.9532 28.8958 66.1222 28.8958H16.0542C15.2232 28.8958 14.5703 29.5478 14.5703 30.3776C14.5703 31.1778 15.2232 31.8595 16.0542 31.8595Z" fill="#00FFE6"/>
<path d="M66.1222 69.7945H16.0542C15.2232 69.7945 14.5703 70.4465 14.5703 71.2763C14.5703 72.1061 15.2232 72.7581 16.0542 72.7581H66.1222C66.9532 72.7581 67.6061 72.1061 67.6061 71.2763C67.6061 70.4761 66.9532 69.7945 66.1222 69.7945Z" fill="#00FFE6"/>
<path d="M118.299 3.40822C118.27 3.37859 118.24 3.31931 118.21 3.31931C116.281 1.39293 114.115 0.414914 111.859 0.414914C108.327 0.444551 105.805 2.87476 105.597 3.08222L86.2759 22.3757C86.0088 22.6424 85.8307 23.0277 85.8307 23.413C85.8307 23.5315 85.8604 23.6797 85.8901 23.7983L84.7326 24.9541L84.1984 24.4207L82.1803 26.4359V0H0V93H82.1803V51.8939L96.9603 37.1348L96.426 36.6013L97.5835 35.4455C97.7022 35.4751 97.8209 35.5048 97.9693 35.5048C98.3551 35.5048 98.741 35.3566 99.0081 35.0602L118.062 16.0335C118.181 15.9149 120.941 13.2476 121 9.54302C121.03 7.3499 120.139 5.30497 118.299 3.40822ZM79.2124 54.8576V90.0067H2.96787V2.96367H79.1827V29.4293L62.5923 45.9962L63.7795 47.1816L63.364 49.4933H16.0562C15.2252 49.4933 14.5722 50.1453 14.5722 50.9751C14.5722 51.805 15.2252 52.457 16.0562 52.457H62.8891L61.6426 59.718L74.1967 57.5841L75.3542 58.74L79.2124 54.8576ZM65.5009 58.2658L62.7407 58.7696L62.5627 58.7992L63.0672 55.8059L63.7201 56.4579L65.115 48.4264L72.9502 56.2505L64.9073 57.6434L65.5009 58.2658ZM75.3542 54.5315L66.8067 45.9962L84.1984 28.6291L92.7459 37.1644L75.3542 54.5315ZM94.8531 36.0975L85.2669 26.5249L86.2463 25.5468L95.8325 35.1195L94.8531 36.0975ZM115.984 13.9589L97.9397 31.9484L89.4219 23.413L107.704 5.15679C107.734 5.12715 109.514 3.37859 111.859 3.37859C113.313 3.37859 114.708 4.03059 116.073 5.36424C116.103 5.39388 116.133 5.42352 116.162 5.45316C117.439 6.72753 118.062 8.09082 118.062 9.51338C118.002 11.9732 116.014 13.8996 115.984 13.9589Z" fill="#00FFE6"/>
<path d="M86.2169 18.5526C86.7215 19.0564 87.5525 19.0564 88.057 18.5526L101.769 4.86041C102.273 4.35659 102.273 3.52676 101.769 3.02294L101.739 2.9933C101.234 2.48948 100.403 2.48948 99.8988 2.9933L86.1873 16.6855C85.6827 17.2189 85.6827 18.0488 86.2169 18.5526Z" fill="#00FFE6"/>
</svg>
