<svg width="53" height="53" viewBox="0 0 53 53" fill="none" xmlns="http://www.w3.org/2000/svg">
<path d="M0.968926 26.6394C0.967365 23.2596 1.63192 19.9127 2.92458 16.7899C4.21724 13.6671 6.11266 10.8297 8.50251 8.43983C10.8924 6.04997 13.7298 4.15455 16.8526 2.86189C19.9754 1.56923 23.3223 0.904692 26.702 0.906253C41.243 0.906253 52.5658 12.4309 52.5302 27.1084C52.4945 41.0497 40.8036 52.4913 26.6367 52.4497C23.2558 52.4435 19.9092 51.7706 16.7885 50.4695C13.6679 49.1685 10.8344 47.2648 8.45032 44.8675C6.06622 42.4701 4.17829 39.6262 2.89454 36.4984C1.61079 33.3706 0.95643 30.0203 0.968926 26.6394ZM40.6493 38.0334C40.5067 33.7703 40.5364 29.5606 40.1742 25.3866C39.9308 22.6197 38.0605 21.1828 35.2699 20.8978C34.1195 20.7226 32.943 20.8766 31.8765 21.3421C30.81 21.8076 29.8971 22.5655 29.2433 23.5281V21.3609H24.3211V38.0275H29.4689C29.4689 35.2428 29.4333 32.5294 29.4689 29.8159C29.4672 28.9245 29.5993 28.0378 29.8608 27.1856C30.2824 25.8913 31.3393 25.4044 32.9127 25.5053C34.1002 25.6063 34.8068 26.2059 35.068 27.5419C35.2096 28.3834 35.2772 29.2357 35.2699 30.0891C35.2699 32.7253 35.2699 35.3616 35.2699 38.0334H40.6493ZM20.9011 38.0334V21.3372H15.7711V38.0394L20.9011 38.0334ZM15.3555 15.9163C15.3403 16.3155 15.4059 16.7137 15.5483 17.087C15.6906 17.4603 15.9069 17.8011 16.1841 18.0888C16.4613 18.3765 16.7937 18.6053 17.1615 18.7615C17.5292 18.9177 17.9247 18.9981 18.3242 18.9978C19.1338 18.9947 19.9095 18.6726 20.483 18.1012C21.0566 17.5299 21.3818 16.7555 21.388 15.9459C21.3927 15.5531 21.3194 15.1632 21.1723 14.7989C21.0252 14.4346 20.8073 14.1031 20.5312 13.8236C20.255 13.5442 19.9261 13.3223 19.5636 13.1709C19.2011 13.0195 18.8121 12.9415 18.4192 12.9416C18.021 12.9288 17.6242 12.9964 17.2526 13.1402C16.8809 13.2841 16.5421 13.5013 16.2562 13.7788C15.9703 14.0564 15.7432 14.3887 15.5885 14.7559C15.4337 15.1232 15.3545 15.5178 15.3555 15.9163Z" fill="black"/>
</svg>
