<svg width="108" height="24" viewBox="0 0 108 24" fill="none" xmlns="http://www.w3.org/2000/svg">
<path d="M10.6142 2.55203C10.8253 1.90222 11.7446 1.90222 11.9557 2.55202L13.6602 7.7979C13.7546 8.0885 14.0255 8.28525 14.331 8.28525H19.8468C20.5301 8.28525 20.8142 9.15957 20.2614 9.56117L15.799 12.8033C15.5518 12.9829 15.4484 13.3013 15.5428 13.5919L17.2473 18.8377C17.4584 19.4875 16.7147 20.0279 16.1619 19.6263L11.6995 16.3842C11.4523 16.2046 11.1176 16.2046 10.8704 16.3842L6.40797 19.6263C5.85521 20.0279 5.11147 19.4875 5.32261 18.8377L7.0271 13.5919C7.12152 13.3013 7.01808 12.9829 6.77088 12.8033L2.30847 9.56117C1.75571 9.15957 2.03979 8.28525 2.72304 8.28525H8.23888C8.54444 8.28525 8.81525 8.0885 8.90967 7.7979L10.6142 2.55203Z" fill="#FFCE00"/>
<path d="M31.7704 2.55203C31.9815 1.90222 32.9008 1.90222 33.112 2.55202L34.8165 7.7979C34.9109 8.0885 35.1817 8.28525 35.4873 8.28525H41.0031C41.6863 8.28525 41.9704 9.15957 41.4177 9.56117L36.9553 12.8033C36.7081 12.9829 36.6046 13.3013 36.699 13.5919L38.4035 18.8377C38.6147 19.4875 37.8709 20.0279 37.3182 19.6263L32.8558 16.3842C32.6086 16.2046 32.2738 16.2046 32.0266 16.3842L27.5642 19.6263C27.0115 20.0279 26.2677 19.4875 26.4789 18.8377L28.1833 13.5919C28.2778 13.3013 28.1743 12.9829 27.9271 12.8033L23.4647 9.56117C22.912 9.15957 23.196 8.28525 23.8793 8.28525H29.3951C29.7007 8.28525 29.9715 8.0885 30.0659 7.7979L31.7704 2.55203Z" fill="#FFCE00"/>
<path d="M52.9345 2.55203C53.1456 1.90222 54.0649 1.90222 54.276 2.55202L55.9805 7.7979C56.075 8.0885 56.3458 8.28525 56.6513 8.28525H62.1672C62.8504 8.28525 63.1345 9.15957 62.5817 9.56117L58.1193 12.8033C57.8721 12.9829 57.7687 13.3013 57.8631 13.5919L59.5676 18.8377C59.7787 19.4875 59.035 20.0279 58.4822 19.6263L54.0198 16.3842C53.7726 16.2046 53.4379 16.2046 53.1907 16.3842L48.7283 19.6263C48.1755 20.0279 47.4318 19.4875 47.6429 18.8377L49.3474 13.5919C49.4418 13.3013 49.3384 12.9829 49.0912 12.8033L44.6288 9.56117C44.076 9.15957 44.3601 8.28525 45.0434 8.28525H50.5592C50.8648 8.28525 51.1356 8.0885 51.23 7.7979L52.9345 2.55203Z" fill="#FFCE00"/>
<path d="M74.0985 2.55203C74.3097 1.90222 75.229 1.90222 75.4401 2.55202L77.1446 7.7979C77.239 8.0885 77.5098 8.28525 77.8154 8.28525H83.3312C84.0145 8.28525 84.2986 9.15957 83.7458 9.56117L79.2834 12.8033C79.0362 12.9829 78.9327 13.3013 79.0272 13.5919L80.7317 18.8377C80.9428 19.4875 80.1991 20.0279 79.6463 19.6263L75.1839 16.3842C74.9367 16.2046 74.602 16.2046 74.3548 16.3842L69.8923 19.6263C69.3396 20.0279 68.5958 19.4875 68.807 18.8377L70.5115 13.5919C70.6059 13.3013 70.5025 12.9829 70.2553 12.8033L65.7928 9.56117C65.2401 9.15957 65.5242 8.28525 66.2074 8.28525H71.7233C72.0288 8.28525 72.2996 8.0885 72.394 7.7979L74.0985 2.55203Z" fill="#FFCE00"/>
<path d="M95.2548 2.55203C95.4659 1.90222 96.3852 1.90222 96.5964 2.55202L98.3008 7.7979C98.3953 8.0885 98.6661 8.28525 98.9716 8.28525H104.487C105.171 8.28525 105.455 9.15957 104.902 9.56117L100.44 12.8033C100.192 12.9829 100.089 13.3013 100.183 13.5919L101.888 18.8377C102.099 19.4875 101.355 20.0279 100.803 19.6263L96.3401 16.3842C96.0929 16.2046 95.7582 16.2046 95.511 16.3842L91.0486 19.6263C90.4958 20.0279 89.7521 19.4875 89.9632 18.8377L91.6677 13.5919C91.7621 13.3013 91.6587 12.9829 91.4115 12.8033L86.9491 9.56117C86.3963 9.15957 86.6804 8.28525 87.3637 8.28525H92.8795C93.1851 8.28525 93.4559 8.0885 93.5503 7.7979L95.2548 2.55203Z" fill="#FFCE00"/>
<path fill-rule="evenodd" clip-rule="evenodd" d="M95.9219 16.2495V2.0647C96.204 2.0653 96.4857 2.22775 96.5911 2.55205L98.2956 7.79793C98.39 8.08853 98.6608 8.28528 98.9664 8.28528H104.482C105.165 8.28528 105.45 9.15959 104.897 9.5612L100.434 12.8033C100.187 12.9829 100.084 13.3013 100.178 13.5919L101.883 18.8378C102.094 19.4876 101.35 20.0279 100.797 19.6263L96.3349 16.3842C96.2117 16.2947 96.0668 16.2498 95.9219 16.2495Z" fill="#765F00"/>
</svg>
