<svg width="52" height="53" viewBox="0 0 52 53" fill="none" xmlns="http://www.w3.org/2000/svg">
<path d="M0.187518 26.4219C0.193621 23.0133 0.874527 19.6397 2.19095 16.4955C3.50738 13.3514 5.43327 10.499 7.85756 8.10282C10.2819 5.70669 13.1565 3.81423 16.3159 2.53462C19.4752 1.255 22.8566 0.613551 26.265 0.647259C40.4319 0.712571 51.8556 12.3976 51.7963 26.7723C51.725 40.8263 40.0044 52.3629 25.885 52.3035C19.0503 52.2627 12.5099 49.517 7.69423 44.6668C2.87856 39.8166 0.179547 33.2568 0.187518 26.4219ZM21.3487 41.9426H27.0131V28.3635H31.6444L32.3628 22.8298H27.0191C27.0191 21.5651 27.0191 20.4548 27.0191 19.3385C27.0725 17.5573 27.6841 16.9635 29.4831 16.8982C30.4806 16.8982 31.4722 16.8982 32.4519 16.8982V11.976C30.3856 11.976 28.355 11.7504 26.3956 12.0354C23.6644 12.4332 21.9247 14.4104 21.5625 17.1773C21.3725 18.6082 21.4081 20.0748 21.3487 21.5235C21.3487 21.951 21.3487 22.3844 21.3487 22.9307H16.765V28.4288H21.3666L21.3487 41.9426Z" fill="black"/>
</svg>
