<svg width="370" height="370" viewBox="0 0 370 370" fill="none" xmlns="http://www.w3.org/2000/svg">
<g clip-path="url(#clip0_2268_258)">
<path d="M89.3125 203.951L89.3132 203.954C89.5399 203.725 89.5248 203.739 89.3125 203.951Z" fill="url(#paint0_linear_2268_258)"/>
<path d="M361.798 152.812L343.4 148.388C339.399 130.924 332.508 114.327 322.877 98.8956L332.201 83.2414C334.742 78.9763 334.054 73.5354 330.55 70.032L299.993 39.4744C296.489 35.9818 291.06 35.283 286.783 37.8232L271.129 47.1476C255.697 37.516 239.101 30.6255 221.636 26.6249L217.212 8.22605C216.005 3.41027 211.677 0.0224609 206.702 0.0224609H163.348C158.374 0.0224609 154.045 3.40955 152.838 8.22605L148.414 26.6249C130.95 30.6255 114.353 37.516 98.9214 47.1476L83.2672 37.8232C79.0021 35.2823 73.5612 35.971 70.0578 39.4744L39.4988 70.0312C35.9954 73.5347 35.3074 78.9748 37.8476 83.2407L47.172 98.8948C37.5404 114.326 30.6499 130.923 26.6493 148.387L8.25047 152.811C3.43469 154.018 0.046875 158.347 0.046875 163.322V206.675C0.046875 211.65 3.43397 215.99 8.26059 217.186L26.6594 221.61C29.3267 233.182 33.3411 244.301 38.4965 254.964C46.4566 246.971 86.4354 206.821 89.3087 203.952C89.167 203.222 87.6184 189.339 87.5772 186.635C86.6551 131.404 131.141 87.4624 185.066 87.4624C239.361 87.4624 282.656 131.242 282.452 185.337C282.219 235.364 244.88 277.953 192.73 281.848C190.474 282.022 180.274 283.526 166.058 280.724L115.189 331.592C125.812 336.717 136.888 340.705 148.413 343.362L152.837 361.772C154.044 366.588 158.373 369.975 163.348 369.975H206.701C211.676 369.975 216.005 366.588 217.212 361.772L221.636 343.373C239.1 339.372 255.697 332.482 271.128 322.85L286.782 332.175C291.027 334.716 296.478 334.017 299.992 330.524L330.549 299.966C334.053 296.463 334.741 291.022 332.201 286.757L322.876 271.102C332.519 255.671 339.398 239.074 343.399 221.599L361.787 217.186C366.614 215.99 370.001 211.65 370.001 206.675V163.322C370.001 158.348 366.614 154.018 361.798 152.812Z" fill="url(#paint1_linear_2268_258)"/>
<path d="M258.363 165.185C257.411 161.453 254.53 158.518 250.815 157.5C247.101 156.481 243.133 157.543 240.409 160.266L215.677 185C207.222 193.454 193.479 193.454 185.024 185C176.577 176.554 176.577 162.794 185.024 154.347L209.767 129.603C212.49 126.88 213.542 122.906 212.524 119.193C211.505 115.481 208.573 112.596 204.842 111.648C159.108 100.025 117.951 129.815 110.403 170.954C107.979 184.502 109.059 197.997 113.493 210.423C107.326 216.591 12.0696 311.846 9.50922 314.407C-3.20303 327.12 -3.20303 347.801 9.71012 360.715C22.5026 372.841 42.0945 373.351 55.6147 360.514L159.599 256.529C176.251 262.472 194.823 262.352 212.997 255.939C245.744 244.384 268.663 205.604 258.363 165.185Z" fill="url(#paint2_linear_2268_258)"/>
</g>
<defs>
<linearGradient id="paint0_linear_2268_258" x1="89.395" y1="203.787" x2="89.395" y2="203.954" gradientUnits="userSpaceOnUse">
<stop stop-color="white"/>
<stop offset="0.24" stop-color="#FFCE00"/>
<stop offset="1" stop-color="#3C3000"/>
</linearGradient>
<linearGradient id="paint1_linear_2268_258" x1="185.024" y1="0.0224609" x2="185.024" y2="369.975" gradientUnits="userSpaceOnUse">
<stop stop-color="white"/>
<stop offset="0.24" stop-color="#FFCE00"/>
<stop offset="1" stop-color="#3C3000"/>
</linearGradient>
<linearGradient id="paint2_linear_2268_258" x1="130.427" y1="109.111" x2="130.427" y2="369.976" gradientUnits="userSpaceOnUse">
<stop stop-color="white"/>
<stop offset="0.24" stop-color="#FFCE00"/>
<stop offset="1" stop-color="#3C3000"/>
</linearGradient>
<clipPath id="clip0_2268_258">
<rect width="370" height="370" fill="white"/>
</clipPath>
</defs>
</svg>
