<svg width="45" height="50" viewBox="0 0 49 57" fill="none" xmlns="http://www.w3.org/2000/svg">
<path d="M1.21081 26.6479C0.619705 26.6067 0.0892268 26.9915 0.0134442 27.5137C-0.077495 28.0497 0.301418 28.5444 0.892523 28.6681C5.07573 29.4926 8.8497 29.8637 12.2751 29.8637C28.5077 29.8637 36.9196 21.4395 42.8913 12.493L46.4985 14.4582C46.8774 14.6643 47.3473 14.6506 47.711 14.4307C48.0748 14.2108 48.2567 13.8123 48.1809 13.4138L45.8619 0.962937C45.8013 0.660599 45.5891 0.385747 45.286 0.234578C44.9829 0.0834087 44.6191 0.0696661 44.3008 0.19335L32.024 4.90707C31.6148 5.05824 31.342 5.41555 31.342 5.81408C31.3268 6.21262 31.5845 6.58367 31.9786 6.76233L35.6768 8.3977C25.7795 28.1459 2.2263 26.7166 1.21081 26.6479ZM38.1624 8.31524C38.3898 7.82051 38.1624 7.24332 37.6168 6.99595L35.1614 5.91028L43.8764 2.55708L45.5588 11.5585L43.0731 10.2117C42.8155 10.0743 42.5124 10.0331 42.2092 10.1018C41.9212 10.1705 41.6636 10.3354 41.512 10.569C35.4797 19.8591 27.5983 28.1184 11.5021 27.8298C20.2019 26.1394 32.0695 21.412 38.1624 8.31524Z" fill="#FFCE00"/>
<path d="M4.81757 39.6622C2.65019 39.6622 0.9375 41.5861 0.9375 44.0461V51.7282C0.9375 54.1881 2.63503 56.1121 4.81757 56.1121H10.1224C12.2897 56.1121 14.0024 54.1881 14.0024 51.7282V44.0461C14.0024 41.5861 12.3049 39.6622 10.1224 39.6622H4.81757ZM11.7441 44.0461V51.7282C11.7441 52.9788 10.9863 54.0644 10.1224 54.0644H4.81757C3.95365 54.0644 3.19582 52.9788 3.19582 51.7282V44.0461C3.19582 42.7955 3.95365 41.7098 4.81757 41.7098H10.1224C10.9863 41.7098 11.7441 42.7955 11.7441 44.0461Z" fill="#FFCE00"/>
<path d="M20.841 32.4611C18.6736 32.4611 16.9609 34.385 16.9609 36.845V51.7145C16.9609 54.1744 18.6585 56.0984 20.841 56.0984H26.1458C28.3132 56.0984 30.0259 54.1744 30.0259 51.7145V36.845C30.0259 34.385 28.3283 32.4611 26.1458 32.4611H20.841ZM27.7675 36.845V51.7145C27.7675 52.9651 27.0097 54.0507 26.1458 54.0507H20.841C19.9771 54.0507 19.2193 52.9651 19.2193 51.7145V36.845C19.2193 35.5944 19.9771 34.5087 20.841 34.5087H26.1458C27.0097 34.5087 27.7675 35.5944 27.7675 36.845Z" fill="#FFCE00"/>
<path d="M43.7395 23.8307H38.4348C36.2674 23.8307 34.5547 25.7547 34.5547 28.2146V51.7282C34.5547 54.1882 36.2522 56.1121 38.4348 56.1121H43.7395C45.9069 56.1121 47.6196 54.1882 47.6196 51.7282V28.2146C47.6196 25.7547 45.9221 23.8307 43.7395 23.8307ZM45.3613 51.7282C45.3613 52.9788 44.6035 54.0645 43.7395 54.0645H38.4348C37.5708 54.0645 36.813 52.9788 36.813 51.7282V28.2146C36.813 26.964 37.5708 25.8783 38.4348 25.8783H43.7395C44.6035 25.8783 45.3613 26.964 45.3613 28.2146V51.7282Z" fill="#FFCE00"/>
</svg>
