<svg width="57" height="50" viewBox="0 0 57 51" fill="none" xmlns="http://www.w3.org/2000/svg">
<path d="M54.0285 39.6341C54.6764 39.7673 55.3089 39.3013 55.4323 38.6024L56.4505 32.8612C56.5122 32.5284 56.4505 32.1789 56.2654 31.8794C56.0802 31.5965 55.8026 31.3968 55.494 31.3302L53.4423 30.9142C53.3497 29.6994 53.1183 28.5012 52.7635 27.353L54.4913 26.0883C55.0467 25.6889 55.1855 24.8735 54.8153 24.291L51.7762 19.4651C51.5911 19.1822 51.3134 18.9825 51.0049 18.916C50.6963 18.8494 50.3724 18.916 50.1101 19.1157L48.3823 20.3804C47.5184 19.5983 46.5774 18.916 45.5592 18.3835L45.9449 16.1702C46.0683 15.4713 45.6364 14.789 44.9884 14.6559L39.6662 13.5575C39.3577 13.491 39.0337 13.5575 38.7715 13.7572C38.5092 13.9569 38.3241 14.2565 38.2624 14.5893L37.8767 16.8026C36.7506 16.9024 35.6399 17.152 34.5754 17.5514L33.403 15.6876C33.2179 15.4047 32.9402 15.205 32.6317 15.1384C32.3231 15.0719 31.9992 15.1384 31.7369 15.3381L27.2632 18.6164C27.0009 18.8161 26.8158 19.1157 26.7541 19.4485C26.6924 19.7813 26.7541 20.1308 26.9392 20.4137L28.1116 22.2775C27.3866 23.2094 26.7541 24.2245 26.2604 25.3228L24.2087 24.9068C23.9001 24.8402 23.5762 24.9068 23.3139 25.1065C23.0517 25.3062 22.8666 25.6057 22.8048 25.9385L21.7867 31.6797C21.6633 32.3786 22.0952 33.0609 22.7431 33.194L24.7949 33.6101C24.8875 34.8249 25.1189 36.0064 25.4891 37.1713L23.7613 38.436C23.499 38.6357 23.3139 38.9352 23.2522 39.268C23.1905 39.6009 23.2522 39.9503 23.4373 40.2499L26.4764 45.0758C26.6615 45.3587 26.9392 45.5584 27.2477 45.6249C27.5563 45.6915 27.8802 45.6249 28.1425 45.4252L29.8703 44.1605C30.7342 44.9426 31.6752 45.6249 32.6934 46.1574L32.3077 48.3707C32.1843 49.0696 32.6162 49.7519 33.2642 49.8851L38.5864 50.9834C38.6635 51 38.7406 51 38.8178 51C39.3886 51 39.8822 50.5673 40.0056 49.9516L40.3913 47.7383C41.5174 47.6385 42.6127 47.3889 43.6926 47.0061L44.865 48.8699C45.0502 49.1528 45.3278 49.3525 45.6364 49.4191C45.9449 49.4857 46.2689 49.4191 46.5465 49.2194L51.0203 45.9411C51.5756 45.5417 51.7145 44.7263 51.3442 44.1439L50.1718 42.2801C50.8969 41.3482 51.5294 40.3331 52.023 39.2348L54.0285 39.6341ZM50.1718 37.2545C49.601 38.7355 48.7834 40.0834 47.7344 41.2483C47.3333 41.6976 47.287 42.3633 47.611 42.8792L48.6446 44.51L46.1609 46.3405L45.1273 44.7097C44.8033 44.1938 44.2017 44.0107 43.6772 44.2437C42.2888 44.8594 40.8232 45.1923 39.3423 45.2089C38.7715 45.2255 38.2933 45.6582 38.1853 46.2573L37.8459 48.2043L34.8685 47.5886L35.2079 45.6416C35.3159 45.0425 35.0074 44.4268 34.4829 44.1938C33.1099 43.5781 31.8603 42.6961 30.7805 41.5645C30.3639 41.1318 29.7314 41.0819 29.2686 41.4314L27.7568 42.5463L26.0599 39.8671L27.5717 38.7522C28.0499 38.4027 28.2196 37.7537 28.0036 37.1879C27.4329 35.6902 27.1243 34.1093 27.1089 32.5117C27.0935 31.896 26.6924 31.3802 26.137 31.2637L24.3475 30.8976L24.9183 27.7191L26.7232 28.0852C27.2786 28.2017 27.834 27.8689 28.0654 27.3031C28.6361 25.822 29.4538 24.4741 30.5028 23.3092C30.9039 22.8599 30.9501 22.1776 30.6262 21.6784L29.5926 20.0476L32.0763 18.217L33.1099 19.8479C33.4338 20.3637 34.0355 20.5468 34.56 20.3138C35.9484 19.6981 37.4139 19.3653 38.8949 19.3486C39.4657 19.332 39.9439 18.8993 40.0519 18.3003L40.3913 16.3699L43.3378 16.9856L42.9984 18.9326C42.8904 19.5317 43.1989 20.1308 43.7235 20.3804C45.0964 20.9961 46.346 21.8781 47.4259 23.0097C47.8424 23.4424 48.4749 23.4923 48.9377 23.1428L50.4495 22.0279L52.1464 24.7071L50.6346 25.822C50.1564 26.1715 49.9867 26.8205 50.2027 27.3863C50.7735 28.884 51.082 30.4483 51.0974 32.0624C51.1128 32.6782 51.5139 33.194 52.0693 33.3105L53.8742 33.6766L53.3034 36.8551L51.4985 36.489C50.9432 36.3558 50.3878 36.6887 50.1718 37.2545Z" fill="#00FFE6"/>
<path d="M40.7124 23.1095C38.4447 22.6436 36.1461 23.1595 34.2332 24.5573C32.3203 25.9552 31.0245 28.0852 30.5925 30.5315C30.1606 32.9777 30.6388 35.4572 31.9346 37.5207C33.2305 39.5842 35.2051 40.9821 37.4728 41.448C38.0127 41.5645 38.5681 41.6144 39.0926 41.6144C43.1653 41.6144 46.806 38.4859 47.5927 34.0261C48.4875 28.9672 45.4021 24.0747 40.7124 23.1095ZM45.217 33.5435C44.9085 35.3075 43.9675 36.8384 42.5945 37.8536C41.2215 38.8687 39.5554 39.2348 37.9202 38.9019C36.285 38.5691 34.8657 37.554 33.9247 36.073C32.9836 34.5919 32.6443 32.7947 32.9528 31.0307C33.2613 29.2667 34.2024 27.7358 35.5753 26.7207C36.6243 25.9552 37.8276 25.5558 39.0772 25.5558C39.4629 25.5558 39.864 25.5891 40.265 25.6723C43.6435 26.3546 45.8649 29.8825 45.217 33.5435Z" fill="#00FFE6"/>
<path d="M0.585819 18.2171C0.662953 18.7497 1.11033 19.1158 1.60398 19.0492L3.16208 18.8162C3.50147 19.6483 3.93341 20.4471 4.45792 21.1626L3.51689 22.5272C3.37805 22.7269 3.31635 22.9931 3.3472 23.2594C3.37805 23.509 3.50147 23.742 3.70201 23.9084L6.95705 26.5377C7.35814 26.8539 7.92893 26.7707 8.22204 26.338L9.16306 24.9734C9.94983 25.3063 10.7829 25.5392 11.6159 25.6557L11.8319 27.3365C11.8627 27.5861 11.9862 27.8191 12.1867 27.9855C12.341 28.1186 12.5415 28.1852 12.7266 28.1852C12.7729 28.1852 12.8192 28.1852 12.85 28.1685L16.8764 27.5362C17.3701 27.453 17.7095 26.9704 17.6477 26.4379L17.4318 24.7571C18.2031 24.391 18.9436 23.925 19.6069 23.3592L20.8719 24.3744C21.273 24.6905 21.8438 24.6073 22.1369 24.1747L24.5743 20.6634C24.8674 20.2307 24.7903 19.615 24.3892 19.2988L23.1242 18.2837C23.4328 17.435 23.6487 16.5364 23.7567 15.6378L25.3148 15.4048C25.5462 15.3715 25.7622 15.2384 25.9165 15.0221C26.0553 14.8224 26.117 14.5561 26.0862 14.3065L25.4999 9.96317C25.4228 9.43065 24.9754 9.06455 24.4818 9.13111L22.9237 9.36409C22.5843 8.53203 22.1523 7.73326 21.6278 7.01769L22.5689 5.65312C22.7077 5.45343 22.7694 5.18717 22.7386 4.92091C22.7077 4.6713 22.5843 4.43832 22.3837 4.27191L19.1287 1.64262C18.9436 1.49285 18.6968 1.42628 18.4499 1.45957C18.2185 1.49285 18.0026 1.62598 17.8483 1.84231L16.9073 3.20688C16.1051 2.87406 15.2875 2.64108 14.4544 2.5246L14.2539 0.827205C14.1922 0.29469 13.7294 -0.0714142 13.2357 0.0117913L9.20934 0.627512C8.97794 0.660794 8.76197 0.810564 8.6077 1.01026C8.46886 1.20995 8.40716 1.47621 8.43801 1.72582L8.65398 3.40657C7.88265 3.77268 7.15759 4.23863 6.47882 4.80443L5.22926 3.78932C5.02871 3.63955 4.79731 3.57299 4.55048 3.60627C4.31908 3.63955 4.10311 3.77268 3.96427 3.98901L1.51142 7.50028C1.37258 7.71662 1.31087 7.96623 1.34173 8.23249C1.38801 8.48211 1.51142 8.71508 1.69654 8.86485L2.96153 9.87996C2.653 10.7287 2.43702 11.6273 2.32904 12.5259L0.770939 12.7755C0.539539 12.8088 0.323565 12.9419 0.184725 13.1583C0.0304578 13.358 -0.031249 13.6242 0.0150311 13.8738L0.585819 18.2171ZM3.28549 14.3564C3.70201 14.2899 4.02597 13.9071 4.05683 13.4578C4.13396 12.243 4.41164 11.0781 4.88987 9.97981C5.07499 9.56378 4.95158 9.06455 4.61219 8.78165L3.51689 7.88303L4.87444 5.93602L5.98517 6.83464C6.30913 7.1009 6.78735 7.08426 7.11131 6.78472C7.95978 5.98594 8.91624 5.37022 9.98068 4.9542C10.3818 4.80443 10.6286 4.35512 10.5669 3.90581L10.3663 2.42475L12.6032 2.07529L12.8038 3.5397C12.8655 3.98901 13.2203 4.33848 13.6368 4.37176C14.7475 4.45496 15.8428 4.7545 16.861 5.27038C17.2467 5.47007 17.7095 5.33694 17.9717 4.97084L18.8048 3.77268L20.6097 5.2371L19.7766 6.41861C19.5144 6.78472 19.5452 7.30059 19.8229 7.65005C20.5634 8.56531 21.1342 9.59706 21.5199 10.7453C21.6741 11.178 22.0752 11.4442 22.4917 11.3777L23.8493 11.1613L24.1732 13.5743L22.8157 13.7906C22.3992 13.8572 22.0752 14.2399 22.0444 14.6892C21.9672 15.8874 21.6895 17.0689 21.2113 18.1672C21.0262 18.5833 21.1496 19.0825 21.489 19.3654L22.5997 20.264L21.2422 22.211L20.1469 21.3124C19.8075 21.0295 19.3293 21.0628 19.0053 21.3623C18.1568 22.1611 17.2004 22.7768 16.1514 23.1928C15.7503 23.3426 15.5034 23.7919 15.5651 24.2412L15.7657 25.7056L13.5288 26.0551L13.3283 24.5907C13.2666 24.1414 12.9118 23.7919 12.4952 23.7586C11.3537 23.6921 10.2738 23.3925 9.25562 22.8767C9.13221 22.8101 9.0088 22.7768 8.86996 22.7768C8.59228 22.7768 8.3146 22.9099 8.1449 23.1596L7.31186 24.3577L5.50694 22.8933L6.33998 21.7118C6.60223 21.3457 6.57138 20.8298 6.2937 20.4803C5.55322 19.5651 4.98243 18.5333 4.59676 17.4017C4.45792 16.9691 4.0414 16.7028 3.62488 16.7694L2.26733 16.9857L1.92794 14.5728L3.28549 14.3564Z" fill="#00FFE6"/>
<path d="M13.0541 21.096C13.3627 21.096 13.6712 21.0793 13.9797 21.0294C17.5279 20.4802 19.9962 16.919 19.4871 13.0916C18.978 9.26414 15.6767 6.60157 12.1285 7.15073C8.5804 7.69988 6.11213 11.2611 6.62121 15.0885C7.08401 18.5665 9.87624 21.096 13.0541 21.096ZM12.3908 9.06445C12.6222 9.03117 12.8382 9.01453 13.0541 9.01453C15.3527 9.01453 17.3582 10.845 17.6976 13.3579C18.0678 16.1203 16.2783 18.6996 13.7175 19.0824C11.1567 19.4818 8.76552 17.5514 8.41071 14.789C8.04046 12.0266 9.82996 9.46384 12.3908 9.06445Z" fill="#00FFE6"/>
</svg>
