<svg width="50" height="50" viewBox="0 0 142 142" fill="none" xmlns="http://www.w3.org/2000/svg">
<g clip-path="url(#clip0_1877_37)">
<path d="M93.6017 40.8376C93.582 40.6024 93.4984 40.3453 93.3933 40.1094L77.4964 7.68839C77.3074 7.2381 77.0968 6.80896 76.8436 6.37942C76.8224 6.35786 76.8014 6.2936 76.7802 6.27204C75.4491 4.23055 73.1725 2.9918 70.7591 2.99053C68.2391 2.96691 65.9663 4.22709 64.606 6.32879C64.5415 6.39225 64.5197 6.45613 64.4763 6.54115C64.3034 6.83854 64.1519 7.11478 64.0432 7.39141L48.0622 38.5098C47.1335 39.9748 46.6535 41.4227 46.6642 42.9392L46.4236 77.1098L30.1744 88.6831C30.0457 88.7673 29.9597 88.8519 29.8733 88.9793C28.1346 90.2231 27.1169 92.1998 27.1231 94.3571C27.0972 98.0304 30.0233 101.048 33.6533 101.167C33.7172 101.189 33.8026 101.19 33.8881 101.191L46.232 101.307L46.2082 104.681C46.1748 109.422 50.0134 113.281 54.7118 113.325L58.7268 113.363L58.9146 113.984C59.1861 114.862 59.9722 115.446 60.9119 115.455L78.5521 115.621C79.4491 115.629 80.2648 115.039 80.5698 114.187L80.7664 113.57L84.9522 113.609C87.2587 113.63 89.4006 112.753 91.0351 111.146C92.6696 109.538 93.5816 107.41 93.5763 105.125L93.5953 102.434L106.11 102.551C106.238 102.553 106.324 102.553 106.409 102.512C106.516 102.534 106.644 102.535 106.73 102.536C108.523 102.553 110.216 101.864 111.506 100.594C112.796 99.325 113.513 97.6444 113.526 95.8504C113.543 93.3304 112.171 91.0749 110.001 89.8585C109.937 89.7938 109.874 89.7292 109.81 89.7072L93.7897 77.8528L94.0323 43.3832C94.0168 42.5501 93.8947 41.6946 93.6017 40.8376ZM34.2066 98.4174C34.1212 98.4166 34.036 98.3731 33.9506 98.3723C33.8652 98.3715 33.7798 98.3707 33.7156 98.3915C31.6017 98.3076 29.9056 96.5403 29.8994 94.3831C29.909 93.0163 30.6011 91.784 31.7595 91.0687C31.9097 90.9633 32.06 90.8579 32.1466 90.6878L46.3781 80.548L46.2518 98.4876L34.2066 98.4174ZM107.703 91.6524C107.851 91.8887 108.085 92.0831 108.319 92.1921C109.788 92.8253 110.739 94.2652 110.706 95.8667C110.699 96.9346 110.265 97.913 109.534 98.6323C108.781 99.3728 107.774 99.7691 106.749 99.7595C106.664 99.7587 106.6 99.7368 106.514 99.736L106.258 99.6908C106.024 99.6673 105.788 99.6864 105.596 99.7487L93.8072 99.6382L93.9353 81.4423L107.703 91.6524ZM89.5159 41.7604C89.7255 42.3176 89.8286 42.8526 89.8465 43.344L89.3905 105.086C89.3824 106.239 88.9048 107.345 88.0875 108.149C87.7649 108.467 87.4214 108.72 87.057 108.908C86.6926 109.097 86.2858 109.243 85.858 109.324C85.58 109.386 85.3022 109.405 85.0032 109.402L79.3012 109.327C78.746 109.322 78.2104 109.552 77.8233 109.932C77.5867 110.165 77.4353 110.441 77.3262 110.761L77.1297 111.378L62.522 111.241L62.3341 110.62C62.0627 109.742 61.2766 109.158 60.3369 109.149L54.7843 109.097C52.3497 109.074 50.3987 107.091 50.437 104.678L50.8285 42.9996C50.8336 42.2734 51.095 41.5497 51.6347 40.7218C51.6778 40.6795 51.7211 40.5945 51.7429 40.5306L67.8105 9.24216C67.8323 9.17829 67.8753 9.13598 67.8756 9.09326C67.9192 8.96552 67.984 8.85934 68.0704 8.732C68.0919 8.71085 68.1134 8.68969 68.1352 8.62582C68.7183 7.71289 69.7046 7.16683 70.7724 7.17684C71.7975 7.18644 72.7123 7.68626 73.2831 8.52457C73.3043 8.54613 73.3255 8.56768 73.304 8.58884C73.4306 8.80361 73.5361 8.99682 73.6412 9.23274C73.6621 9.29701 73.7042 9.38284 73.7251 9.44711L89.4538 41.4821C89.4317 41.5887 89.4738 41.6745 89.5159 41.7604Z" fill="#00FFE6"/>
<path d="M66.9831 74.8678C64.9329 74.8486 63.0266 75.621 61.5857 77.0385C60.1447 78.456 59.3197 80.3704 59.3267 82.3995L59.2338 95.5979C59.2044 99.7838 62.5973 103.233 66.8044 103.294L73.0404 103.352C75.0906 103.371 76.9968 102.599 78.4378 101.182C79.8787 99.7641 80.7038 97.8496 80.6967 95.8205L80.7896 82.6221C80.804 80.5718 80.0272 78.6637 78.6064 77.2194C77.1856 75.7751 75.2693 74.9455 73.2403 74.9478L66.9831 74.8678ZM76.5826 82.5613L76.4897 95.7597C76.4834 96.6567 76.1142 97.5289 75.469 98.1636C74.8238 98.7983 73.9456 99.1531 73.0486 99.1447L66.8126 99.0863C64.9333 99.0687 63.4064 97.5166 63.4197 95.6372L63.5126 82.4388C63.5189 81.5418 63.8881 80.6696 64.5333 80.0349C65.1785 79.4002 66.0567 79.0453 66.9536 79.0537L73.1896 79.1122C74.0866 79.1206 74.9597 79.4919 75.5958 80.1386C76.2532 80.8068 76.5889 81.6643 76.5826 82.5613Z" fill="#00FFE6"/>
<path d="M66.8358 41.9746C64.9526 42.5123 63.2369 43.5214 61.8174 44.9177C59.5377 47.1603 58.2565 50.1597 58.2552 53.3848C58.2326 56.5883 59.4499 59.6325 61.719 61.9391C63.988 64.2457 66.9692 65.5124 70.2153 65.5429C73.4187 65.5729 76.46 64.3626 78.7397 62.12C81.0194 59.8775 82.2794 56.8564 82.3235 53.6318C82.346 50.4283 81.1287 47.384 78.8597 45.0774C76.6119 42.7924 73.6095 41.5041 70.3846 41.4953C69.1459 41.4837 67.9488 41.6433 66.8358 41.9746ZM78.095 53.5921C78.0802 55.6851 77.2549 57.6423 75.7494 59.1232C74.2655 60.583 72.295 61.3762 70.2021 61.3565C68.1091 61.3369 66.1501 60.507 64.6657 58.998C63.2025 57.5106 62.4048 55.5381 62.3983 53.4236C62.4342 51.3522 63.2596 49.395 64.7435 47.9352C66.2275 46.4754 68.198 45.6823 70.3124 45.6808C72.4053 45.7004 74.3644 46.5304 75.8276 48.0178C77.312 49.5268 78.1097 51.4992 78.095 53.5921Z" fill="#00FFE6"/>
</g>
<defs>
<clipPath id="clip0_1877_37">
<rect width="99.284" height="100.302" fill="white" transform="translate(0 69.6259) rotate(-44.5298)"/>
</clipPath>
</defs>
</svg>
