<svg width="62" height="62" viewBox="0 0 62 62" fill="none" xmlns="http://www.w3.org/2000/svg">
<path d="M61.734 45.3094L55.6188 39.1942C56.9225 37.3389 57.8011 35.3176 58.5451 33.601C58.9979 32.5564 59.4256 31.5698 59.8705 30.7991L60.201 30.2268L60.4498 30.4757C60.6271 30.6531 60.8596 30.7417 61.092 30.7417C61.3244 30.7417 61.5569 30.6531 61.7341 30.4757C62.0888 30.121 62.0888 29.546 61.7341 29.1914L61.1413 28.5984L61.5165 27.9485C62.1141 26.9136 62.0454 26.0682 61.8825 25.5412C61.672 24.8602 61.1844 24.2829 60.4723 23.8718C59.9931 23.595 59.4994 23.4441 59.0158 23.4232C59.0282 23.0828 58.975 22.7924 58.9039 22.5626C58.6935 21.8815 58.2058 21.3043 57.4938 20.8932C57.0049 20.6109 56.5121 20.4622 56.0374 20.4406C56.0491 20.1021 55.9961 19.8129 55.9254 19.5839C55.7149 18.9029 55.2273 18.3256 54.5153 17.9145C54.0268 17.6325 53.5343 17.4838 53.0599 17.4621C53.0988 16.4483 52.5725 15.534 51.5367 14.9359C50.8248 14.5249 50.0813 14.3911 49.3858 14.5494C48.8481 14.6718 48.0815 15.035 47.4842 16.0699C47.4764 16.0833 47.4665 16.1 47.4546 16.1198L44.6715 13.3369C44.3863 12.6218 43.3035 10.1556 41.1807 8.03286C38.8938 5.74588 35.9586 4.47367 33.6 3.45151C32.5555 2.99874 31.5688 2.57104 30.7982 2.12626L30.2287 1.79749L30.4756 1.55058C30.8302 1.1959 30.8302 0.620941 30.4756 0.266257C30.121 -0.0884269 29.5459 -0.0884269 29.1912 0.266257L28.6002 0.857317L27.9475 0.480472C26.9125 -0.117005 26.0673 -0.0483448 25.5403 0.114527C24.8592 0.324988 24.282 0.812633 23.8709 1.52467C23.5886 2.0134 23.4399 2.50637 23.4183 2.98106C23.0795 2.96956 22.7906 3.02236 22.5616 3.09307C21.8806 3.30354 21.3033 3.79118 20.8922 4.50321C20.6102 4.99158 20.4615 5.48432 20.4398 5.95864C19.4254 5.91953 18.5117 6.44604 17.9136 7.48188C17.6371 7.96093 17.4861 8.45414 17.4651 8.93743C16.4492 8.89723 15.534 9.42326 14.9351 10.4604C14.524 11.1725 14.3903 11.9161 14.5486 12.6112C14.671 13.149 15.0341 13.9155 16.069 14.513C16.0835 14.5213 16.1013 14.532 16.1233 14.5452L13.3404 17.328C12.6253 17.6132 10.1591 18.696 8.03637 20.8189C7.85848 20.9968 7.68495 21.181 7.51458 21.3709L1.55046 15.4068C1.19577 15.0521 0.620697 15.0521 0.266134 15.4068C-0.0885499 15.7614 -0.0885499 16.3365 0.266134 16.6911L6.37871 22.8037C5.80545 23.6189 5.26501 24.5378 4.73559 25.595C4.51096 26.0435 4.69248 26.5892 5.14101 26.8137C5.27155 26.8791 5.41033 26.91 5.54704 26.91C5.88005 26.91 6.20058 26.7261 6.35982 26.4083C7.27953 24.5717 8.22043 23.2039 9.32093 22.1032C11.4823 19.942 14.1272 18.9708 14.1523 18.9617C14.2788 18.9164 14.3936 18.8438 14.4885 18.7488L17.6797 15.557C18.5996 16.1669 20.0184 17.1161 22.2063 18.5924C22.9148 19.0703 23.5566 19.6234 24.1241 20.2405L21.6626 22.7019C21.3433 23.0213 21.3071 23.5267 21.5777 23.8883C27.4958 31.796 27.3347 32.941 25.9332 35.3685L24.6324 37.6216C24.2482 37.8997 23.8491 38.1923 23.4323 38.5014L21.6903 36.7595C22.3391 36.3414 23.0348 35.9898 23.7716 35.7146C24.2414 35.539 24.4801 35.0159 24.3045 34.546C24.1289 34.0762 23.6057 33.8377 23.1358 34.0131C20.6592 34.9385 18.5686 36.5857 17.0902 38.7769C14.5999 42.468 13.2047 44.5691 12.9432 45.0218C12.7266 45.397 12.4804 45.6182 12.2113 45.6795C11.9071 45.749 11.587 45.6153 11.3719 45.4911C11.1568 45.367 10.8811 45.1563 10.789 44.8584C10.7075 44.5947 10.776 44.2708 10.9925 43.8958L13.7783 39.0706C14.0291 38.6362 13.8802 38.0807 13.4459 37.83C13.0114 37.5791 12.4561 37.728 12.2053 38.1624L9.962 42.0479C9.55053 42.7578 9.06639 42.9011 8.39335 42.5124C8.17829 42.3882 7.90256 42.1776 7.81041 41.8797C7.72891 41.6161 7.79745 41.2922 8.01397 40.9171L10.9555 35.8223C11.2062 35.388 11.0574 34.8325 10.6231 34.5817C10.1886 34.3308 9.63323 34.4798 9.38245 34.9141L6.98612 39.0648C6.57404 39.7786 6.08942 39.9234 5.41481 39.5339C4.74031 39.1444 4.62334 38.6524 5.03542 37.9386L8.0245 32.7613C8.27529 32.327 8.12646 31.7715 7.6921 31.5207C7.25773 31.2697 6.70228 31.4186 6.45149 31.8531L4.00745 36.0862C3.59537 36.8002 3.11051 36.9448 2.43614 36.5553C1.76164 36.1659 1.64467 35.6739 2.05675 34.96L3.70266 32.1092C4.11147 31.4011 4.49062 30.5666 4.83937 29.7703C5.04063 29.3109 4.83125 28.7753 4.37182 28.574C3.91215 28.3728 3.3768 28.582 3.17554 29.0416C2.84774 29.7899 2.49426 30.5695 2.12965 31.201L1.79918 31.7733L1.55034 31.5245C1.19565 31.1698 0.620576 31.1698 0.266013 31.5245C-0.088671 31.8792 -0.088671 32.4542 0.266013 32.8088L0.85901 33.4018L0.48374 34.0517C-0.430035 35.6343 -0.0201319 37.2345 1.52793 38.1283C2.01643 38.4104 2.50891 38.5591 2.98336 38.5807C2.94449 39.5945 3.47064 40.5088 4.5066 41.1069C4.99546 41.3892 5.48831 41.5379 5.963 41.5594C5.95125 41.898 6.00429 42.1872 6.07501 42.4161C6.28547 43.0972 6.77312 43.6744 7.48515 44.0856C7.97401 44.3678 8.46686 44.5165 8.94155 44.5381C8.9298 44.8767 8.98284 45.1658 9.05356 45.3948C9.26402 46.0758 9.75166 46.6531 10.4637 47.0642C10.9814 47.3631 11.5159 47.5154 12.0362 47.5154C12.2315 47.5154 12.4248 47.494 12.6144 47.4508C13.1522 47.3283 13.9187 46.9652 14.5162 45.9302C14.524 45.9167 14.5339 45.9 14.5458 45.8804L17.3288 48.6634C17.6139 49.3784 18.6968 51.8446 20.8197 53.9674C20.9992 54.147 21.1839 54.3181 21.3709 54.4855L15.4065 60.4498C15.0518 60.8045 15.0518 61.3796 15.4065 61.7341C15.5838 61.9114 15.8163 62.0002 16.0487 62.0002C16.2811 62.0002 16.5135 61.9115 16.6908 61.7341L22.8044 55.6206C24.6604 56.9254 26.6828 57.8044 28.4003 58.5488C29.4448 59.0015 30.4315 59.4291 31.2021 59.874L31.7716 60.2028L31.5247 60.4497C31.17 60.8044 31.17 61.3793 31.5247 61.734C31.702 61.9114 31.9345 62.0001 32.1669 62.0001C32.3993 62.0001 32.6318 61.9114 32.809 61.734L33.4001 61.143L34.0528 61.5198C34.6802 61.882 35.2379 61.9993 35.6973 61.9993C35.9956 61.9993 36.2526 61.9498 36.46 61.8858C37.1411 61.6753 37.7183 61.1876 38.1294 60.4756C38.4061 59.9963 38.5571 59.5026 38.5781 59.0191C38.9193 59.0321 39.2089 58.9783 39.4387 58.9072C40.1197 58.6967 40.697 58.2091 41.1081 57.4971C41.3904 57.0083 41.5391 56.5154 41.5606 56.0407C41.8988 56.0514 42.1884 55.9994 42.4174 55.9287C43.0984 55.7182 43.6756 55.2306 44.0868 54.5185C44.3688 54.0301 44.5175 53.5374 44.5392 53.0632C45.5542 53.1026 46.4672 52.5758 47.0653 51.54C47.4764 50.8279 47.6101 50.0842 47.4518 49.3891C47.3294 48.8513 46.9663 48.0848 45.9314 47.4874C45.6971 47.3522 44.5881 46.6422 39.7941 43.4077C39.0856 42.9297 38.4438 42.3767 37.8763 41.7596L40.3378 39.2981C40.6571 38.9788 40.6933 38.4733 40.4228 38.1117C37.8481 34.6715 36.5165 32.6476 35.8262 31.1262C35.619 30.6694 35.0806 30.4672 34.6239 30.6744C34.1671 30.8816 33.9648 31.4198 34.1721 31.8767C34.4553 32.501 34.8306 33.1931 35.3317 34.0048C33.1843 33.0269 31.3533 33.2665 27.997 35.3349C28.9775 33.1853 28.7387 31.3537 26.6678 27.994C27.4577 28.3539 28.2048 28.5499 29.0008 28.5499C30.3686 28.5499 31.8809 27.9734 34.0023 26.6659C33.8176 27.0687 33.6853 27.4386 33.5955 27.804C33.476 28.2911 33.7739 28.7829 34.2611 28.9026C34.3339 28.9204 34.4066 28.929 34.4783 28.929C34.8868 28.929 35.2579 28.6514 35.3596 28.237C35.4719 27.7798 35.6901 27.2846 36.0671 26.6316L37.368 24.3784C37.7522 24.1002 38.1512 23.8078 38.5681 23.4986L40.3101 25.2406C39.6613 25.6587 38.9656 26.0102 38.2288 26.2855C37.759 26.4611 37.5203 26.9842 37.6959 27.454C37.8715 27.9239 38.3949 28.1625 38.8646 27.9868C41.3413 27.0616 43.4318 25.4142 44.9102 23.2231C47.4005 19.5322 48.7957 17.4311 49.0573 16.9782C49.2739 16.6032 49.5201 16.3819 49.7891 16.3206C50.0933 16.2515 50.4134 16.385 50.6285 16.5091C51.303 16.8985 51.42 17.3905 51.0079 18.1044L50.4726 19.0315C50.4694 19.0371 48.2221 22.9296 48.2221 22.9296C47.9713 23.364 48.1202 23.9194 48.5545 24.1702C48.9886 24.4209 49.5443 24.272 49.7951 23.8378L52.0438 19.9429C52.4542 19.2411 52.9369 19.1006 53.607 19.4876C53.8221 19.6119 54.0978 19.8224 54.19 20.1203C54.2715 20.384 54.2029 20.7079 53.9864 21.0829L51.0449 26.1777C50.7942 26.6121 50.943 27.1675 51.3773 27.4183C51.8115 27.6691 52.3672 27.5203 52.618 27.0859L55.0143 22.9353C55.4265 22.2216 55.9111 22.0767 56.5856 22.4662C56.8007 22.5903 57.0764 22.801 57.1685 23.0989C57.25 23.3625 57.1815 23.6864 56.965 24.0615L53.9759 29.2387C53.7251 29.6731 53.8739 30.2285 54.3083 30.4793C54.7425 30.7301 55.2981 30.5813 55.5489 30.1469L57.9929 25.9138C58.2096 25.5387 58.4558 25.3174 58.7248 25.2562C59.0288 25.1873 59.3491 25.3205 59.5643 25.4447C59.7793 25.569 60.0551 25.7795 60.1472 26.0774C60.2287 26.3411 60.1602 26.665 59.9436 27.04L58.2977 29.8908C57.8008 30.7517 57.353 31.7848 56.8789 32.8785C55.8679 35.2111 54.7221 37.8548 52.6797 39.8972C50.5184 42.0584 47.8735 43.0296 47.8483 43.0387C47.7219 43.084 47.6071 43.1566 47.5121 43.2516L46.5272 44.2366C46.1725 44.5912 46.1725 45.1663 46.5272 45.5209C46.7044 45.6982 46.937 45.7869 47.1693 45.7869C47.4017 45.7869 47.6342 45.6983 47.8115 45.5209L48.6601 44.6723C49.3752 44.3871 51.8414 43.3043 53.9642 41.1814C54.1445 41.001 54.3163 40.8155 54.4844 40.6278L60.4502 46.5937C60.6275 46.7709 60.86 46.8597 61.0923 46.8597C61.3247 46.8597 61.5572 46.7711 61.7345 46.5937C62.0888 46.2391 62.0888 45.664 61.734 45.3094ZM35.3695 36.0705L37.6191 37.3693C37.894 37.7493 38.1862 38.1482 38.498 38.5689L36.7578 40.3092C36.3409 39.6616 35.9903 38.9674 35.7157 38.2322C35.5401 37.7624 35.0168 37.5241 34.5471 37.6993C34.0773 37.8749 33.8386 38.3981 34.0142 38.868C34.9396 41.3447 36.5868 43.4352 38.778 44.9136C42.4689 47.4039 44.57 48.7991 45.0229 49.0607C45.398 49.2773 45.6192 49.5235 45.6805 49.7925C45.7497 50.0965 45.6162 50.4168 45.4921 50.6319C45.1026 51.3065 44.6105 51.4232 43.8968 51.0113L39.0715 48.2255C38.6372 47.9745 38.0817 48.1235 37.8309 48.5579C37.5801 48.9923 37.729 49.5477 38.1633 49.7985L42.0588 52.0476C42.7602 52.458 42.9003 52.9405 42.5135 53.6104C42.3893 53.8255 42.1787 54.1012 41.8808 54.1934C41.6172 54.2748 41.2931 54.2063 40.9182 53.9898L35.8234 51.0483C35.3889 50.7973 34.8336 50.9464 34.5828 51.3807C34.332 51.8151 34.4809 52.3706 34.9152 52.6213L39.0658 55.0177C39.7797 55.4299 39.9244 55.9145 39.535 56.589C39.4107 56.804 39.2001 57.0798 38.9022 57.1719C38.6385 57.2534 38.3146 57.1849 37.9397 56.9684L32.7624 53.9793C32.3279 53.7284 31.7726 53.8773 31.5218 54.3117C31.271 54.7461 31.4198 55.3015 31.8542 55.5523L36.0873 57.9963C36.4624 58.213 36.6837 58.4592 36.7448 58.7282C36.8141 59.0323 36.6805 59.3525 36.5564 59.5676C36.4323 59.7828 36.2216 60.0584 35.9237 60.1506C35.6598 60.232 35.3362 60.1636 34.9611 59.947L32.1103 58.3011C31.2495 57.8042 30.2163 57.3564 29.1226 56.8823C26.7901 55.8713 24.1463 54.7255 22.104 52.6831C19.9427 50.5218 18.9715 47.8769 18.9624 47.8517C18.9171 47.7253 18.8445 47.6105 18.7496 47.5155L15.558 44.324C16.1677 43.4042 17.1176 41.9844 18.596 39.7933C19.0731 39.0862 19.6248 38.4455 20.2405 37.8788L22.703 40.3413C22.8791 40.5174 23.1116 40.6074 23.3455 40.6074C23.5359 40.6074 23.7271 40.5477 23.8894 40.4262C31.7968 34.508 32.9419 34.6689 35.3695 36.0705ZM43.4043 22.2071C42.9272 22.9142 42.3755 23.555 41.7598 24.1216L39.2971 21.659C38.9778 21.3395 38.4722 21.3033 38.1108 21.5741C30.2032 27.4921 29.058 27.331 26.6306 25.9296L24.3819 24.6313C24.1037 24.2471 23.811 23.848 23.502 23.431L25.2422 21.6908C25.6592 22.3384 26.0097 23.0326 26.2844 23.7678C26.4209 24.1329 26.7672 24.3584 27.1353 24.3584C27.2409 24.3584 27.3483 24.3399 27.4531 24.3007C27.9229 24.1252 28.1616 23.6019 27.9859 23.1321C27.0605 20.6553 25.4132 18.5649 23.222 17.0864C19.5311 14.5962 17.43 13.2009 16.9771 12.9393C16.6021 12.7227 16.3808 12.4765 16.3196 12.2076C16.2503 11.9035 16.3839 11.5832 16.5081 11.3681C16.8975 10.6937 17.3897 10.5768 18.1034 10.9888L19.037 11.5279C19.0405 11.5299 22.9286 13.7746 22.9286 13.7746C23.3629 14.0254 23.9183 13.8766 24.1692 13.4422C24.42 13.0079 24.2712 12.4524 23.8368 12.2016L19.9467 9.95571C19.5771 9.7404 19.3589 9.49604 19.2982 9.22915C19.229 8.92508 19.3625 8.60491 19.4866 8.38972C19.8761 7.71523 20.3682 7.59825 21.0819 8.01034L26.1767 10.9518C26.6108 11.2026 27.1665 11.0538 27.4173 10.6194C27.6681 10.1851 27.5193 9.6296 27.0849 9.37882L22.9338 6.98213C22.2205 6.57004 22.0759 6.08555 22.4652 5.41118C22.5894 5.19611 22.8 4.92038 23.0979 4.82823C23.3615 4.74661 23.6855 4.81527 24.0605 5.03179L29.2377 8.02087C29.672 8.27178 30.2276 8.12283 30.4783 7.68847C30.7291 7.2541 30.5803 6.69865 30.1459 6.44786L25.9129 4.00394C25.199 3.59174 25.0543 3.10712 25.4437 2.43263C25.5679 2.21756 25.7786 1.94183 26.0765 1.84968C26.34 1.76819 26.6639 1.83672 27.039 2.05324L29.8898 3.69915C30.7507 4.19612 31.7839 4.64392 32.8776 5.11801C35.2101 6.1289 37.8538 7.27481 39.8962 9.31718C42.0575 11.4785 43.0285 14.1234 43.0376 14.1486C43.0829 14.275 43.1555 14.3898 43.2505 14.4847L46.4422 17.6764C45.8326 18.5962 44.8827 20.016 43.4043 22.2071Z" fill="#FFCE00"/>
<path d="M41.7129 6.05945C41.9452 6.05945 42.1777 5.97081 42.355 5.79341L46.5982 1.55027C46.9528 1.19559 46.9528 0.620515 46.5982 0.265952C46.2435 -0.0887321 45.6684 -0.0887321 45.3138 0.265952L41.0707 4.50908C40.716 4.86377 40.716 5.43884 41.0707 5.79341C41.248 5.97081 41.4804 6.05945 41.7129 6.05945Z" fill="#FFCE00"/>
</svg>
