<svg width="52" height="50" viewBox="0 0 60 59" fill="none" xmlns="http://www.w3.org/2000/svg">
<path d="M23.6108 58.1281C36.6255 58.1281 47.2215 47.5901 47.2215 34.6466C47.2215 28.53 44.8489 22.9517 40.9791 18.7594L45.4248 14.338C45.5861 14.5556 45.8279 14.716 46.1274 14.7504L55.422 15.7698C55.4565 15.7698 55.4911 15.7813 55.5371 15.7813C56.0324 15.7813 56.4585 15.4033 56.5161 14.8993C56.5737 14.3609 56.1821 13.8684 55.6408 13.8111L46.9221 12.8604L49.479 10.3175C49.525 10.329 49.5596 10.3404 49.6056 10.3404L58.9002 11.3599C58.9348 11.3599 58.9693 11.3599 59.0154 11.3599C59.5107 11.3599 59.9368 10.9819 59.9944 10.4779C60.052 9.93952 59.6604 9.44698 59.1191 9.3897L51.2526 8.54208L56.0209 3.78851C56.4125 3.39906 56.4125 2.78052 56.0209 2.39108C55.6293 2.00163 55.0073 2.00163 54.6273 2.39108L49.7323 7.25919L47.1524 0.6271C46.9566 0.123107 46.3808 -0.12889 45.874 0.0658349C45.3672 0.260559 45.1138 0.833279 45.3096 1.33727L48.1775 8.69099C48.189 8.7139 48.212 8.7368 48.2235 8.75971L46.1159 10.8559L43.5129 4.0176C43.3171 3.50215 42.7528 3.25015 42.2345 3.44488C41.7277 3.6396 41.4628 4.20087 41.6586 4.71632L44.5265 12.2991C44.538 12.3335 44.561 12.3564 44.584 12.3908L39.5855 17.362C35.3816 13.5133 29.7726 11.1537 23.6108 11.1537C10.5961 11.1651 0 21.6917 0 34.6466C0 47.6015 10.5961 58.1281 23.6108 58.1281ZM23.6108 13.1353C29.2198 13.1353 34.3335 15.2658 38.1803 18.7594L33.5043 23.4099C30.8552 21.1075 27.4 19.6987 23.6108 19.6987C15.3182 19.6987 8.5805 26.3995 8.5805 34.6466C8.5805 42.8938 15.3297 49.5946 23.6108 49.5946C31.8918 49.5946 38.641 42.8938 38.641 34.6466C38.641 30.8781 37.2359 27.4418 34.9094 24.8073L39.5855 20.1568C43.0983 23.9826 45.2405 29.0683 45.2405 34.6466C45.2405 46.5134 35.5313 56.158 23.6108 56.158C11.6787 56.158 1.981 46.5134 1.981 34.6466C1.981 22.7799 11.6787 13.1353 23.6108 13.1353ZM22.9082 35.3453C23.104 35.5401 23.3574 35.6317 23.6108 35.6317C23.8642 35.6317 24.1175 35.5401 24.3133 35.3453L27.3655 32.3099C27.7916 32.9857 28.045 33.7875 28.045 34.6466C28.045 37.075 26.0525 39.0566 23.6108 39.0566C21.1691 39.0566 19.1765 37.075 19.1765 34.6466C19.1765 32.2183 21.1691 30.2367 23.6108 30.2367C24.4746 30.2367 25.2808 30.4887 25.9603 30.9125L22.9082 33.9479C22.5166 34.3259 22.5166 34.9559 22.9082 35.3453ZM27.3885 29.4921C26.3289 28.7247 25.0274 28.2551 23.6108 28.2551C20.0749 28.2551 17.1955 31.1187 17.1955 34.6352C17.1955 38.1517 20.0749 41.0153 23.6108 41.0153C27.1466 41.0153 30.026 38.1517 30.026 34.6352C30.026 33.2263 29.5653 31.9319 28.7821 30.8781L33.5043 26.1818C35.4737 28.4498 36.66 31.405 36.66 34.6237C36.66 41.7827 30.8092 47.6015 23.6108 47.6015C16.4124 47.6015 10.5615 41.7827 10.5615 34.6237C10.5615 27.4647 16.4124 21.6459 23.6108 21.6459C26.8472 21.6459 29.8187 22.8257 32.0991 24.7844L27.3885 29.4921Z" fill="#FFCE00"/>
</svg>
