<svg width="52" height="53" viewBox="0 0 52 53" fill="none" xmlns="http://www.w3.org/2000/svg">
<path d="M0.179803 26.4925C0.16965 23.1022 0.82845 19.7433 2.11846 16.608C3.40847 13.4727 5.30434 10.6228 7.69749 8.22133C10.0906 5.8199 12.9341 3.9142 16.0649 2.61338C19.1957 1.31256 22.5523 0.642172 25.9426 0.640626C29.3322 0.639841 32.6886 1.30748 35.8199 2.60533C38.9511 3.90317 41.7957 5.80575 44.1908 8.20418C46.586 10.6026 48.4846 13.4498 49.7781 16.5829C51.0717 19.7159 51.7346 23.0733 51.7292 26.4628C51.7308 33.2849 49.0296 39.8298 44.2168 44.6649C39.4039 49.5 32.8716 52.2314 26.0495 52.2613C22.6572 52.2738 19.2959 51.6165 16.1581 50.3272C13.0204 49.0378 10.1681 47.1418 7.7647 44.7478C5.36131 42.3538 3.45413 39.5089 2.15254 36.3762C0.850958 33.2436 0.180562 29.8848 0.179803 26.4925ZM26.1445 40.3031V40.0181C28.1929 40.0181 30.2473 40.0953 32.2957 40.0181C36.6835 39.8044 39.4207 37.3759 39.6345 33.0059C39.872 28.7369 39.8186 24.4322 39.6345 20.1572C39.4801 16.09 36.9745 13.335 32.937 13.1213C28.2855 12.8976 23.6252 12.9353 18.9779 13.2341C17.3112 13.3337 15.7451 14.0645 14.598 15.2777C13.4509 16.491 12.809 18.0956 12.8029 19.7653C12.6486 24.2303 12.6486 28.7072 12.8029 33.1722C12.9276 36.7941 15.2967 39.3353 18.8889 39.8341C21.2995 40.1428 23.7279 40.1428 26.1445 40.3031Z" fill="black"/>
<path d="M26.2829 37.7389C24.0147 37.6201 21.7407 37.6023 19.4844 37.3589C16.9135 37.0857 15.3282 35.4292 15.2688 32.8345C15.1738 28.6367 15.1679 24.427 15.2688 20.2232C15.3401 17.5157 16.9491 15.7048 19.6329 15.6098C24.1276 15.4435 28.6341 15.491 33.1288 15.6573C34.1949 15.6999 35.2038 16.1509 35.9465 16.9169C36.6892 17.6828 37.109 18.7051 37.1188 19.772C37.2375 24.1954 37.2613 28.6248 37.1188 33.0482C37.0357 35.7498 35.1119 37.3767 32.1907 37.5073C30.2254 37.5964 28.2482 37.5073 26.2532 37.5073L26.2829 37.7389ZM19.2291 26.5467C19.2274 27.4703 19.4095 28.3851 19.7648 29.2377C20.12 30.0904 20.6413 30.8638 21.2983 31.5131C21.9553 32.1623 22.7348 32.6744 23.5916 33.0195C24.4484 33.3646 25.3652 33.5358 26.2888 33.5232C27.2034 33.517 28.1079 33.3307 28.9505 32.9749C29.7931 32.6192 30.5574 32.1009 31.1997 31.4498C31.842 30.7986 32.3498 30.0273 32.694 29.18C33.0383 28.3326 33.2122 27.4257 33.206 26.511C33.2138 25.5868 33.0383 24.6702 32.6895 23.8143C32.3407 22.9584 31.8256 22.1802 31.174 21.5247C30.5224 20.8692 29.7472 20.3495 28.8934 19.9957C28.0395 19.6418 27.124 19.4608 26.1997 19.4632C25.2761 19.4679 24.3626 19.6551 23.5116 20.0141C22.6606 20.3731 21.889 20.8968 21.2412 21.5552C20.5933 22.2135 20.0821 22.9934 19.7368 23.85C19.3914 24.7067 19.2189 25.6231 19.2291 26.5467ZM33.5207 17.6048C33.0894 17.5935 32.671 17.7521 32.3556 18.0464C32.0401 18.3407 31.853 18.7472 31.8344 19.1782C31.8336 19.4017 31.8773 19.6231 31.9628 19.8295C32.0483 20.0359 32.1739 20.2233 32.3325 20.3808C32.491 20.5382 32.6793 20.6626 32.8863 20.7467C33.0934 20.8307 33.3151 20.8728 33.5385 20.8704C33.969 20.8596 34.3783 20.6809 34.6789 20.3725C34.9795 20.0641 35.1477 19.6505 35.1475 19.2198C35.1483 19.0065 35.1067 18.7951 35.0251 18.5981C34.9435 18.401 34.8235 18.2221 34.6721 18.0718C34.5207 17.9215 34.341 17.8029 34.1433 17.7227C33.9456 17.6425 33.734 17.6024 33.5207 17.6048Z" fill="black"/>
<path d="M30.7024 26.5409C30.6993 27.7262 30.2275 28.8622 29.3898 29.701C28.5522 30.5397 27.4169 31.0131 26.2315 31.0178C25.6349 31.0178 25.0442 30.8995 24.4936 30.6698C23.943 30.44 23.4434 30.1034 23.0238 29.6793C22.6041 29.2553 22.2727 28.7522 22.0488 28.1992C21.8248 27.6462 21.7127 27.0543 21.719 26.4578C21.7347 25.2536 22.2273 24.1047 23.0888 23.2633C23.9503 22.4218 25.1104 21.9563 26.3146 21.969C27.4995 22.0032 28.6235 22.5016 29.4443 23.3568C30.2651 24.2121 30.717 25.3556 30.7024 26.5409Z" fill="black"/>
</svg>
