<svg width="53" height="53" viewBox="0 0 53 53" fill="none" xmlns="http://www.w3.org/2000/svg">
<path d="M0.968926 26.3269C0.967365 22.9471 1.63192 19.6002 2.92458 16.4774C4.21724 13.3546 6.11266 10.5172 8.50251 8.12733C10.8924 5.73747 13.7298 3.84205 16.8526 2.54939C19.9754 1.25673 23.3223 0.592192 26.702 0.593753C41.243 0.593753 52.5658 12.1184 52.5302 26.7959C52.4945 40.7372 40.8036 52.1788 26.6367 52.1372C23.2558 52.131 19.9092 51.4581 16.7885 50.157C13.6679 48.856 10.8344 46.9523 8.45032 44.555C6.06622 42.1576 4.17829 39.3137 2.89454 36.1859C1.61079 33.0581 0.95643 29.7078 0.968926 26.3269ZM40.6493 37.7209C40.5067 33.4578 40.5364 29.2481 40.1742 25.0741C39.9308 22.3072 38.0605 20.8703 35.2699 20.5853C34.1195 20.4101 32.943 20.5641 31.8765 21.0296C30.81 21.4951 29.8971 22.253 29.2433 23.2156V21.0484H24.3211V37.715H29.4689C29.4689 34.9303 29.4333 32.2169 29.4689 29.5034C29.4672 28.612 29.5993 27.7253 29.8608 26.8731C30.2824 25.5788 31.3393 25.0919 32.9127 25.1928C34.1002 25.2938 34.8068 25.8934 35.068 27.2294C35.2096 28.0709 35.2772 28.9232 35.2699 29.7766C35.2699 32.4128 35.2699 35.0491 35.2699 37.7209H40.6493ZM20.9011 37.7209V21.0247H15.7711V37.7269L20.9011 37.7209ZM15.3555 15.6038C15.3403 16.003 15.4059 16.4012 15.5483 16.7745C15.6906 17.1478 15.9069 17.4886 16.1841 17.7763C16.4613 18.064 16.7937 18.2928 17.1615 18.449C17.5292 18.6052 17.9247 18.6856 18.3242 18.6853C19.1338 18.6822 19.9095 18.3601 20.483 17.7887C21.0566 17.2174 21.3818 16.443 21.388 15.6334C21.3927 15.2406 21.3194 14.8507 21.1723 14.4864C21.0252 14.1221 20.8073 13.7906 20.5312 13.5111C20.255 13.2317 19.9261 13.0098 19.5636 12.8584C19.2011 12.707 18.8121 12.629 18.4192 12.6291C18.021 12.6163 17.6242 12.6839 17.2526 12.8277C16.8809 12.9716 16.5421 13.1888 16.2562 13.4663C15.9703 13.7439 15.7432 14.0762 15.5885 14.4434C15.4337 14.8107 15.3545 15.2053 15.3555 15.6038Z" fill="black"/>
</svg>
