<svg width="49" height="39" viewBox="0 0 49 39" fill="none" xmlns="http://www.w3.org/2000/svg">
<path d="M45.314 0.751994V8.54H40.826C37.218 8.54 35.414 10.344 35.414 13.952V18.176H37.394C40.474 18.176 43.026 19.1 45.05 20.948C47.074 22.796 48.0861 25.128 48.0861 27.944C48.0861 31.024 47.074 33.532 45.05 35.468C43.026 37.316 40.474 38.24 37.394 38.24C34.314 38.24 31.762 37.272 29.738 35.336C27.802 33.312 26.834 30.716 26.834 27.548V13.82C26.834 5.108 31.19 0.751994 39.902 0.751994H45.314ZM19.31 0.751994V8.54H14.822C11.214 8.54 9.41005 10.344 9.41005 13.952V18.176H11.39C14.47 18.176 17.022 19.1 19.046 20.948C21.07 22.796 22.082 25.128 22.082 27.944C22.082 31.024 21.07 33.532 19.046 35.468C17.022 37.316 14.47 38.24 11.39 38.24C8.31005 38.24 5.75805 37.272 3.73405 35.336C1.79805 33.312 0.830046 30.716 0.830046 27.548V13.82C0.830046 5.108 5.18605 0.751994 13.898 0.751994H19.31Z" fill="#2F3533"/>
</svg>
