<svg width="49" height="39" viewBox="0 0 49 39" fill="none" xmlns="http://www.w3.org/2000/svg">
<path d="M3.66205 38.24V30.452H8.15005C11.758 30.452 13.562 28.648 13.562 25.04V20.816H11.582C8.50205 20.816 5.95005 19.892 3.92605 18.044C1.90205 16.196 0.890047 13.864 0.890047 11.048C0.890047 7.968 1.90205 5.504 3.92605 3.656C5.95005 1.71999 8.50205 0.751994 11.582 0.751994C14.662 0.751994 17.17 1.76399 19.106 3.78799C21.13 5.724 22.142 8.276 22.142 11.444V25.172C22.142 33.884 17.786 38.24 9.07405 38.24H3.66205ZM29.666 38.24V30.452H34.1541C37.762 30.452 39.566 28.648 39.566 25.04V20.816H37.586C34.506 20.816 31.9541 19.892 29.93 18.044C27.906 16.196 26.894 13.864 26.894 11.048C26.894 7.968 27.906 5.504 29.93 3.656C31.9541 1.71999 34.506 0.751994 37.586 0.751994C40.666 0.751994 43.174 1.76399 45.1101 3.78799C47.1341 5.724 48.1461 8.276 48.1461 11.444V25.172C48.1461 33.884 43.7901 38.24 35.0781 38.24H29.666Z" fill="#2F3533"/>
</svg>
