<svg width="52" height="53" viewBox="0 0 52 53" fill="none" xmlns="http://www.w3.org/2000/svg">
<path d="M51.7567 26.4693C51.7504 33.3151 49.0252 39.8782 44.1806 44.7151C39.3359 49.5519 32.7685 52.2665 25.9226 52.2618C19.096 52.2461 12.5541 49.524 7.73135 44.6923C2.90861 39.8607 0.198596 33.3138 0.19547 26.4871C0.183534 23.0779 0.848679 19.7002 2.15234 16.5501C3.456 13.3999 5.37221 10.54 7.78981 8.1362C10.2074 5.73241 13.0782 3.83261 16.2358 2.54702C19.3934 1.26143 22.7748 0.615629 26.1839 0.647093C32.991 0.706625 39.4987 3.45418 44.2888 8.29102C49.0789 13.1279 51.7632 19.6619 51.7567 26.4693ZM12.7948 36.7768C15.0391 38.1917 17.5869 39.0543 20.2291 39.2937C22.8714 39.5332 25.5327 39.1427 27.9948 38.1543C34.4251 35.7318 38.6823 29.3727 38.807 22.3487C38.7862 22.0234 38.8463 21.698 38.982 21.4016C39.1178 21.1053 39.3249 20.8472 39.5848 20.6505C40.3225 19.977 41.0185 19.2593 41.6689 18.5012L41.5205 18.3587L38.9198 19.0177L41.0633 16.1024C40.2873 16.2041 39.5321 16.4265 38.8248 16.7615C38.4056 16.9804 37.9289 17.0642 37.4601 17.0015C36.9913 16.9388 36.5533 16.7326 36.2064 16.4112C34.3361 14.9446 32.1689 14.9268 30.0848 15.9243C29.0792 16.3926 28.2278 17.1379 27.6305 18.0728C27.0332 19.0076 26.7147 20.0933 26.7123 21.2027C26.7123 21.7015 26.7123 22.2062 26.7123 22.7287C24.3319 22.5735 22.0081 21.9348 19.8827 20.8517C17.7573 19.7686 15.8749 18.2637 14.3504 16.429C12.8423 19.5165 13.5726 22.0458 15.6389 24.4505L13.4895 23.8865C13.6736 26.8255 15.2351 28.6365 17.7586 29.9249H15.6745C16.6126 32.5137 18.483 33.6952 21.143 34.1702C18.7402 35.9681 15.7937 36.8881 12.7948 36.7768Z" fill="black"/>
</svg>
